<?xml version="1.0" encoding="UTF-8" standalone="no"?>
<svg
   xmlns:dc="http://purl.org/dc/elements/1.1/"
   xmlns:cc="http://creativecommons.org/ns#"
   xmlns:rdf="http://www.w3.org/1999/02/22-rdf-syntax-ns#"
   xmlns:svg="http://www.w3.org/2000/svg"
   xmlns="http://www.w3.org/2000/svg"
   xmlns:sodipodi="http://sodipodi.sourceforge.net/DTD/sodipodi-0.dtd"
   xmlns:inkscape="http://www.inkscape.org/namespaces/inkscape"
   width="297mm"
   height="165mm"
   viewBox="0 0 297 165"
   version="1.1"
   id="svg8"
   inkscape:version="1.0.1 (c497b03c, 2020-09-10)"
   sodipodi:docname="model_sketch.svg">
  <defs
     id="defs2">
    <clipPath
       clipPathUnits="userSpaceOnUse"
       id="clipPath851">
      <path
         d="M 0,0 H 1920 V 1080 H 0 Z"
         id="path849" />
    </clipPath>
    <clipPath
       clipPathUnits="userSpaceOnUse"
       id="clipPath911">
      <path
         d="m 604.07,65.78087 h 24.54736 V 87.03644 H 604.07 Z"
         id="path909" />
    </clipPath>
    <clipPath
       clipPathUnits="userSpaceOnUse"
       id="clipPath925">
      <path
         d="M 0,0 H 1920 V 1080 H 0 Z"
         id="path923" />
    </clipPath>
    <clipPath
       clipPathUnits="userSpaceOnUse"
       id="clipPath981">
      <path
         d="m 1445.821,65.78087 h 24.5474 v 21.25557 h -24.5474 z"
         id="path979" />
    </clipPath>
    <clipPath
       clipPathUnits="userSpaceOnUse"
       id="clipPath995">
      <path
         d="M 0,0 H 1920 V 1080 H 0 Z"
         id="path993" />
    </clipPath>
    <clipPath
       clipPathUnits="userSpaceOnUse"
       id="clipPath1543">
      <path
         d="M 0,0 H 1920 V 1080 H 0 Z"
         id="path1541" />
    </clipPath>
    <clipPath
       clipPathUnits="userSpaceOnUse"
       id="clipPath1603">
      <path
         d="m 604.07,65.78087 h 24.54736 V 87.03644 H 604.07 Z"
         id="path1601" />
    </clipPath>
    <clipPath
       clipPathUnits="userSpaceOnUse"
       id="clipPath1617">
      <path
         d="M 0,0 H 1920 V 1080 H 0 Z"
         id="path1615" />
    </clipPath>
    <clipPath
       clipPathUnits="userSpaceOnUse"
       id="clipPath1673">
      <path
         d="m 1445.821,65.78087 h 24.5474 v 21.25557 h -24.5474 z"
         id="path1671" />
    </clipPath>
    <clipPath
       clipPathUnits="userSpaceOnUse"
       id="clipPath1687">
      <path
         d="M 0,0 H 1920 V 1080 H 0 Z"
         id="path1685" />
    </clipPath>
  </defs>
  <sodipodi:namedview
     id="base"
     pagecolor="#ffffff"
     bordercolor="#666666"
     borderopacity="1.0"
     inkscape:pageopacity="0.0"
     inkscape:pageshadow="2"
     inkscape:zoom="1.1619273"
     inkscape:cx="891.87849"
     inkscape:cy="334.59577"
     inkscape:document-units="mm"
     inkscape:current-layer="layer1"
     inkscape:document-rotation="0"
     showgrid="false"
     height="190mm"
     inkscape:window-width="2560"
     inkscape:window-height="1318"
     inkscape:window-x="1440"
     inkscape:window-y="25"
     inkscape:window-maximized="0" />
  <metadata
     id="metadata5">
    <rdf:RDF>
      <cc:Work
         rdf:about="">
        <dc:format>image/svg+xml</dc:format>
        <dc:type
           rdf:resource="http://purl.org/dc/dcmitype/StillImage" />
        <dc:title></dc:title>
      </cc:Work>
    </rdf:RDF>
  </metadata>
  <g
     inkscape:label="Layer 1"
     inkscape:groupmode="layer"
     id="layer1">
    <g
       id="g1535"
       transform="matrix(0.15946144,0,0,-0.15946144,-5.0214498,194.55401)" />
    <path
       style="fill:#d38d5f;stroke:none;stroke-width:0.329922;stroke-opacity:0"
       d=""
       id="path2460"
       transform="scale(0.26458333)" />
    <path
       d="M -5.0214498,-1.4768552 H 301.14451 V 170.7415 H -5.0214498 Z"
       style="fill:#ffffff;fill-opacity:1;fill-rule:nonzero;stroke:none;stroke-width:0.159461"
       id="path1545" />
    <g
       id="g1547"
       transform="matrix(0.15946144,0,0,0.15946144,9.5587842,115.81639)"
       style="stroke:#37abc8">
      <path
         d="M 0,7.961867 C 14.7172,1.83159 32.98705,-0.6709429 50.83828,0.9746543 68.99274,2.648204 85.38862,8.578764 103.7952,9.561685 c 24.3085,1.298085 47.3206,-6.200719 71.6635,-6.009067 22.1309,0.174236 42.762,6.690482 64.8988,6.773472 24.3276,0.0912 47.1221,-7.592046 71.4452,-6.615921 22.6659,0.909622 42.9499,9.275541 65.7457,8.895321 17.6226,-0.29394 33.9237,-5.884994 51.5779,-5.621188 17.493,0.261397 33.1345,6.222498 50.5244,7.153918 26.6782,1.42891 51.0395,-8.954358 77.7368,-8.242508 19.8511,0.529307 37.9327,7.211638 57.8399,7.111678 22.103,-0.111 42.4171,-8.599589 64.4506,-6.675703 14.1004,1.231188 25.9862,6.646513 39.9987,8.235823 32.73,3.71227 61.1177,-13.316321 93.907,-11.671853 19.4679,0.976367 36.2537,8.574023 55.7651,9.328303 27.1751,1.05055 50.0458,-10.93815 76.7135,-12.1217642 13.8817,-0.6161251 27.3206,1.6718002 40.5102,3.6932102 12.8074,1.962844 25.8015,3.743207 38.9975,5.329946"
         style="fill:none;stroke:#37abc8;stroke-width:3;stroke-linecap:butt;stroke-linejoin:miter;stroke-miterlimit:4;stroke-dasharray:none;stroke-opacity:1"
         id="path1549" />
    </g>
    <g
       id="g1551"
       transform="matrix(0,-0.15946144,0.15946144,0,172.99732,145.7574)">
      <path
         d="M 0,0 H 791.6251"
         style="fill:none;stroke:#000000;stroke-width:3;stroke-linecap:butt;stroke-linejoin:miter;stroke-miterlimit:4;stroke-dasharray:3, 3;stroke-dashoffset:0;stroke-opacity:1"
         id="path1553" />
    </g>
    <g
       id="g1555"
       transform="matrix(0.15946144,0,0,0.15946144,173.12154,150.89168)">
      <path
         d="m 1.91,0 h 1.5 710.209 1.5"
         style="fill:none;stroke:#000000;stroke-width:3;stroke-linecap:butt;stroke-linejoin:miter;stroke-miterlimit:8;stroke-dasharray:none;stroke-opacity:1"
         id="path1557" />
    </g>
    <g
       id="g1559"
       transform="matrix(0,-0.35081517,0.35081517,0,287.1969,151.94412)">
      <path
         d="M 0,0 H 6"
         style="fill:none;stroke:#000000;stroke-width:1.36364;stroke-linecap:butt;stroke-linejoin:miter;stroke-miterlimit:10;stroke-dasharray:none;stroke-opacity:1"
         id="path1561" />
    </g>
    <g
       id="g1563"
       transform="matrix(0,0.35081517,-0.35081517,0,173.38465,149.83923)">
      <path
         d="M 0,0 H 6"
         style="fill:none;stroke:#000000;stroke-width:1.36364;stroke-linecap:butt;stroke-linejoin:miter;stroke-miterlimit:10;stroke-dasharray:none;stroke-opacity:1"
         id="path1565" />
    </g>
    <g
       id="g1567"
       transform="matrix(0.15946144,0,0,0.15946144,12.094296,28.401945)">
      <path
         d="m 0,0 h 103.6716 1"
         style="fill:none;stroke:#000000;stroke-width:2;stroke-linecap:butt;stroke-linejoin:miter;stroke-miterlimit:4;stroke-dasharray:none;stroke-opacity:1"
         id="path1569" />
    </g>
    <path
       d="M 28.625919,29.16736 30.156748,28.401945 28.625919,27.63653 Z"
       style="fill:#000000;fill-opacity:1;fill-rule:nonzero;stroke:none;stroke-width:0.159461"
       id="path1571" />
    <g
       id="g1573"
       transform="matrix(0.15946144,0,0,0.15946144,9.0462337,150.89168)">
      <path
         d="m 1.91,0 h 1.5 1020.808 1.5"
         style="fill:none;stroke:#000000;stroke-width:3;stroke-linecap:butt;stroke-linejoin:miter;stroke-miterlimit:8;stroke-dasharray:none;stroke-opacity:1"
         id="path1575" />
    </g>
    <g
       id="g1577"
       transform="matrix(0,-0.35081517,0.35081517,0,172.65017,151.94412)">
      <path
         d="M 0,0 H 6"
         style="fill:none;stroke:#000000;stroke-width:1.36364;stroke-linecap:butt;stroke-linejoin:miter;stroke-miterlimit:10;stroke-dasharray:none;stroke-opacity:1"
         id="path1579" />
    </g>
    <g
       id="g1581"
       transform="matrix(0,0.35081517,-0.35081517,0,9.309345,149.83923)">
      <path
         d="M 0,0 H 6"
         style="fill:none;stroke:#000000;stroke-width:1.36364;stroke-linecap:butt;stroke-linejoin:miter;stroke-miterlimit:10;stroke-dasharray:none;stroke-opacity:1"
         id="path1583" />
    </g>
    <g
       id="g1585"
       transform="matrix(0.15946144,0,0,-0.15946144,79.147018,160.1695)">
      <text
         transform="scale(1,-1)"
         style="font-style:italic;font-variant:normal;font-size:45px;font-family:'Times New Roman';-inkscape-font-specification:TimesNewRomanPS-ItalicMT;writing-mode:lr-tb;fill:#000000;fill-opacity:1;fill-rule:nonzero;stroke:none"
         id="text1589"><tspan
           x="0 14.985 37.485001 48.735001 63.720001"
           y="0"
           sodipodi:role="line"
           id="tspan1587">(1 -</tspan></text>
    </g>
    <g
       id="g1591"
       transform="matrix(0.15946144,0,0,-0.15946144,79.147018,160.1695)">
      <text
         transform="matrix(1,0,0,-1,100.9288,0)"
         style="font-style:italic;font-variant:normal;font-size:45px;font-family:'Times New Roman';-inkscape-font-specification:TimesNewRomanPS-ItalicMT;writing-mode:lr-tb;fill:#000000;fill-opacity:1;fill-rule:nonzero;stroke:none"
         id="text1595"><tspan
           x="0 14.985 26.235001"
           y="0"
           sodipodi:role="line"
           id="tspan1593">) L</tspan></text>
    </g>
    <g
       id="g1597"
       transform="matrix(0.15946144,0,0,-0.15946144,-5.0214498,170.7415)">
      <g
         id="g1599"
         clip-path="url(#clipPath1603)">
        <g
           id="g1605"
           transform="translate(602.8003,24.39303)">
          <text
             transform="matrix(1,0,0,-1,0,41.90513)"
             style="font-style:italic;font-variant:normal;font-size:47.0256px;font-family:STIXGeneral;-inkscape-font-specification:STIXGeneral-Italic;writing-mode:lr-tb;fill:#000000;fill-opacity:1;fill-rule:nonzero;stroke:none"
             id="text1609"><tspan
               x="0"
               y="0"
               id="tspan1607">α</tspan></text>
        </g>
      </g>
    </g>
    <g
       id="g1619"
       transform="matrix(0.15946144,0,0,-0.15946144,21.916961,26.772329)">
      <text
         transform="scale(1,-1)"
         style="font-style:italic;font-variant:normal;font-size:45px;font-family:'Times New Roman';-inkscape-font-specification:TimesNewRomanPS-ItalicMT;writing-mode:lr-tb;fill:#000000;fill-opacity:1;fill-rule:nonzero;stroke:none"
         id="text1623"><tspan
           x="0"
           y="0"
           id="tspan1621">u</tspan></text>
    </g>
    <g
       id="g1625"
       transform="matrix(-0.15946144,1.0107181e-5,-1.0107181e-5,-0.15946144,287.44231,18.873406)">
      <path
         d="M 0,0 H 1745.885"
         style="fill:none;stroke:#000000;stroke-width:3;stroke-linecap:butt;stroke-linejoin:miter;stroke-miterlimit:4;stroke-dasharray:none;stroke-opacity:1"
         id="path1627" />
    </g>
    <g
       id="g1629"
       transform="matrix(-0.15946144,0,0,-0.15946144,287.28317,146.39006)">
      <path
         d="M 0,0 H 1745.885"
         style="fill:none;stroke:#000000;stroke-width:3;stroke-linecap:butt;stroke-linejoin:miter;stroke-miterlimit:4;stroke-dasharray:none;stroke-opacity:1"
         id="path1631" />
    </g>
    <g
       id="g1633"
       transform="matrix(0.15946144,0,0,0.15946144,172.99604,104.86528)"
       style="stroke:#c87137;stroke-width:3.50554969;stroke-miterlimit:4;stroke-dasharray:none">
      <path
         d="M 0,77.17989 C 0.8720334,66.85036 4.258508,56.95876 9.594395,48.13266 42.52871,-6.344039 102.7713,4.861895 163.499,7.856232 219.0901,10.59729 282.3322,-5.004743 341.1701,1.677177 c 26.0728,2.96095 52.0151,8.974853 78.1961,9.768253 45.0719,1.36586 95.2792,-8.153912 140.1044,-6.733549 29.9792,0.94994 59.3219,8.095089 84.9246,6.767429 22.0399,-1.14291 45.1121,-4.779424 59.5115,18.0317 4.6496,7.36578 5.4315,17.03463 11.9068,23.15184"
         style="fill:none;stroke:#c87137;stroke-width:3.50554969;stroke-linecap:butt;stroke-linejoin:miter;stroke-miterlimit:4;stroke-dasharray:none;stroke-opacity:1"
         id="path1635" />
    </g>
    <g
       id="g1637"
       transform="matrix(0.15946144,0,0,-0.15946144,223.83649,142.65066)">
      <text
         transform="scale(1,-1)"
         style="font-variant:normal;font-weight:normal;font-size:45px;font-family:'Times New Roman';-inkscape-font-specification:TimesNewRomanPSMT;writing-mode:lr-tb;fill:#000000;fill-opacity:1;fill-rule:nonzero;stroke:none"
         id="text1641"><tspan
           x="0 12.501 32.472 54.972"
           y="0"
           sodipodi:role="line"
           id="tspan1639">land</tspan></text>
    </g>
    <g
       id="g1643"
       transform="matrix(0.15946144,0,0,-0.15946144,82.916033,142.65066)">
      <text
         transform="scale(1,-1)"
         style="font-variant:normal;font-weight:normal;font-size:45px;font-family:'Times New Roman';-inkscape-font-specification:TimesNewRomanPSMT;writing-mode:lr-tb;fill:#000000;fill-opacity:1;fill-rule:nonzero;stroke:none"
         id="text1647"><tspan
           x="0 22.5 42.471001 62.442001 82.413002"
           y="0"
           sodipodi:role="line"
           id="tspan1645">ocean</tspan></text>
    </g>
    <g
       id="g1649"
       transform="matrix(0.15946144,0,0,-0.15946144,65.481157,27.074939)">
      <text
         transform="scale(1,-1)"
         style="font-variant:normal;font-weight:normal;font-size:45px;font-family:'Times New Roman';-inkscape-font-specification:TimesNewRomanPSMT;writing-mode:lr-tb;fill:#000000;fill-opacity:1;fill-rule:nonzero;stroke:none"
         id="text1653"><tspan
           x="0 22.5 42.471001 62.442001 82.413002 104.913 116.163 136.134 148.63499 183.636 206.136 223.64999 246.14999 268.64999 288.621 303.60599"
           y="0"
           sodipodi:role="line"
           id="tspan1651">ocean atmosphere</tspan></text>
    </g>
    <g
       id="g1655"
       transform="matrix(0.15946144,0,0,-0.15946144,206.40162,27.074939)">
      <text
         transform="scale(1,-1)"
         style="font-variant:normal;font-weight:normal;font-size:45px;font-family:'Times New Roman';-inkscape-font-specification:TimesNewRomanPSMT;writing-mode:lr-tb;fill:#000000;fill-opacity:1;fill-rule:nonzero;stroke:none"
         id="text1659"><tspan
           x="0 12.501 32.472 54.972 77.472 88.722 108.693 121.194 156.19501 178.69501 196.209 218.709 241.209 261.17999 276.16501"
           y="0"
           sodipodi:role="line"
           id="tspan1657">land atmosphere</tspan></text>
    </g>
    <g
       id="g1661"
       transform="matrix(0.15946144,0,0,-0.15946144,225.32873,160.1695)">
      <text
         transform="matrix(1,0,0,-1,37.20813,0)"
         style="font-style:italic;font-variant:normal;font-size:45px;font-family:'Times New Roman';-inkscape-font-specification:TimesNewRomanPS-ItalicMT;writing-mode:lr-tb;fill:#000000;fill-opacity:1;fill-rule:nonzero;stroke:none"
         id="text1665"><tspan
           x="0"
           y="0"
           id="tspan1663">L</tspan></text>
    </g>
    <g
       id="g1667"
       transform="matrix(0.15946144,0,0,-0.15946144,-5.0214498,170.7415)">
      <g
         id="g1669"
         clip-path="url(#clipPath1673)">
        <g
           id="g1675"
           transform="translate(1444.551,24.39303)">
          <text
             transform="matrix(1,0,0,-1,0,41.90513)"
             style="font-style:italic;font-variant:normal;font-size:47.0256px;font-family:STIXGeneral;-inkscape-font-specification:STIXGeneral-Italic;writing-mode:lr-tb;fill:#000000;fill-opacity:1;fill-rule:nonzero;stroke:none"
             id="text1679"><tspan
               x="0"
               y="0"
               id="tspan1677">α</tspan></text>
        </g>
      </g>
    </g>
    <g
       id="g1689"
       transform="matrix(0.15946144,0,0,-0.15946144,86.814945,70.970432)">
      <text
         transform="scale(1,-1)"
         style="font-style:italic;font-variant:normal;font-weight:bold;font-size:56px;font-family:'Times New Roman';-inkscape-font-specification:TimesNewRomanPS-BoldItalicMT;writing-mode:lr-tb;fill:#000000;fill-opacity:1;fill-rule:nonzero;stroke:none"
         id="text1693"><tspan
           x="0"
           y="0"
           id="tspan1691">w</tspan></text>
    </g>
    <g
       id="g1695"
       transform="matrix(0.15946144,0,0,-0.15946144,86.814945,70.970432)">
      <text
         transform="matrix(1,0,0,-1,37.35156,-4.037761)"
         style="font-variant:normal;font-weight:bold;font-size:37.3333px;font-family:'Times New Roman';-inkscape-font-specification:TimesNewRomanPS-BoldMT;writing-mode:lr-tb;fill:#000000;fill-opacity:1;fill-rule:nonzero;stroke:none"
         id="text1699"><tspan
           x="0"
           y="0"
           id="tspan1697">o</tspan></text>
    </g>
    <g
       id="g1701"
       transform="matrix(0.15946144,0,0,-0.15946144,226.20864,70.970432)">
      <text
         transform="scale(1,-1)"
         style="font-style:italic;font-variant:normal;font-weight:bold;font-size:56px;font-family:'Times New Roman';-inkscape-font-specification:TimesNewRomanPS-BoldItalicMT;writing-mode:lr-tb;fill:#000000;fill-opacity:1;fill-rule:nonzero;stroke:none"
         id="text1705"><tspan
           x="0"
           y="0"
           id="tspan1703">w</tspan></text>
    </g>
    <g
       id="g1707"
       transform="matrix(0.15946144,0,0,-0.15946144,226.20864,70.970432)">
      <text
         transform="matrix(1,0,0,-1,37.35156,-4.037761)"
         style="font-variant:normal;font-weight:bold;font-size:37.3333px;font-family:'Times New Roman';-inkscape-font-specification:TimesNewRomanPS-BoldMT;writing-mode:lr-tb;fill:#000000;fill-opacity:1;fill-rule:nonzero;stroke:none"
         id="text1711"><tspan
           x="0"
           y="0"
           id="tspan1709">l</tspan></text>
    </g>
    <g
       id="g1713"
       transform="matrix(0.15946144,0,0,-0.15946144,228.27606,124.94424)">
      <text
         transform="scale(1,-1)"
         style="font-style:italic;font-variant:normal;font-weight:bold;font-size:56px;font-family:'Times New Roman';-inkscape-font-specification:TimesNewRomanPS-BoldItalicMT;writing-mode:lr-tb;fill:#000000;fill-opacity:1;fill-rule:nonzero;stroke:none"
         id="text1717"><tspan
           x="0"
           y="0"
           id="tspan1715">s</tspan></text>
    </g>
    <path
       d="m 16.432476,21.737462 c -0.184401,-0.0042 -0.312879,0.0089 -0.326353,0.01035 -0.119931,0.01274 -0.20325,0.09845 -0.186778,0.191098 0.01651,0.09263 0.126677,0.156958 0.246687,0.144297 0.0068,-6.38e-4 0.695156,-0.06509 1.09574,0.205386 0.202755,0.136898 0.305544,0.34517 0.304698,0.618599 v 0.0064 c 1.44e-4,0.0029 0.0059,0.301478 -0.283028,0.53241 -0.243354,0.194559 -0.630223,0.292373 -1.146735,0.291575 h -3.64288 c -0.121032,0 -0.219276,0.07592 -0.219276,0.169428 0,0.09352 0.09824,0.169428 0.219276,0.169428 h 3.642258 c 0.640764,7.97e-4 1.132814,-0.131699 1.462246,-0.395002 0.403932,-0.322893 0.407232,-0.726427 0.406037,-0.775716 6.37e-4,-0.374766 -0.151887,-0.668367 -0.453844,-0.872238 -0.347386,-0.23452 -0.810718,-0.289056 -1.118048,-0.296008 z m 2.821894,1.640076 c -0.137296,-0.0032 -0.232208,0.0063 -0.242222,0.0074 -0.119628,0.01273 -0.203505,0.09767 -0.187399,0.19011 0.01603,0.09246 0.126341,0.157293 0.246049,0.145302 0.0047,-4.79e-4 0.46644,-0.04451 0.731115,0.135446 0.13071,0.08884 0.193713,0.220296 0.193139,0.401891 l 6.38e-4,0.0064 c 1.12e-4,0.0019 0.0037,0.193156 -0.183572,0.342794 -0.159812,0.127761 -0.417358,0.192566 -0.76492,0.192566 -0.0018,0 -0.0033,0 -0.0051,0 l -6.548284,-0.0059 c -0.12092,0 -0.219132,0.076 -0.219276,0.169428 -1.43e-4,0.09352 0.09761,0.169316 0.218638,0.169428 l 6.548284,0.0054 c 0.0021,0 0.0042,0 0.0064,0 0.470603,0 0.833601,-0.09925 1.079172,-0.295498 0.30068,-0.24034 0.307362,-0.540877 0.306596,-0.585111 4.78e-4,-0.281338 -0.115689,-0.502798 -0.344835,-0.657508 -0.260417,-0.175854 -0.605587,-0.216756 -0.834398,-0.22213 z m -1.287603,2.416288 -5.473578,0.0034 c -0.121031,8e-5 -0.218749,0.07592 -0.218638,0.169428 9.6e-5,0.09346 0.09815,0.168933 0.219276,0.168933 l 5.473577,-0.0035 c 9.57e-4,0 0.0022,0 0.0032,0 0.183747,0 0.317822,0.03184 0.398382,0.09408 0.08995,0.06946 0.09045,0.160865 0.09053,0.162029 v 0.0064 c 3.19e-4,0.08973 -0.02866,0.153035 -0.08797,0.193555 -0.108179,0.07386 -0.308064,0.07306 -0.376074,0.06649 -0.119373,-0.01229 -0.228923,0.05243 -0.245412,0.144791 -0.01649,0.09263 0.06686,0.177847 0.186762,0.190604 0.01378,0.0014 0.06157,0.0059 0.128765,0.0059 0.15109,0 0.401476,-0.02259 0.593436,-0.15219 0.108912,-0.07357 0.239,-0.210696 0.239048,-0.447704 7.98e-4,-0.03862 -0.0055,-0.238634 -0.210361,-0.402385 -0.166669,-0.133166 -0.407823,-0.201352 -0.720925,-0.199948 z"
       style="fill:#000000;fill-opacity:1;fill-rule:nonzero;stroke:none;stroke-width:0.159461"
       id="path1719" />
    <path
       d="m 168.27534,126.79383 v -3.01274 l -6.06639,5.60726 6.06639,5.60725 v -3.01273 h 15.62212 v -5.18904 z"
       style="fill:#000000;fill-opacity:1;fill-rule:nonzero;stroke:none;stroke-width:0.159461"
       id="path1721" />
    <g
       id="g1723"
       transform="matrix(-0.15946144,0,0,-0.15946144,183.89746,134.9956)">
      <path
         d="M 97.96859,51.4342 V 70.32746 L 136.0116,35.16373 97.96859,0 V 18.89326 H 0 V 51.4342 Z"
         style="fill:none;stroke:#000000;stroke-width:2;stroke-linecap:butt;stroke-linejoin:miter;stroke-miterlimit:4;stroke-dasharray:none;stroke-opacity:1"
         id="path1725" />
    </g>
    <g
       id="g1727"
       transform="matrix(0,-0.15946144,0.15946144,0,286.79378,145.75738)">
      <path
         d="M 0,0 H 791.625"
         style="fill:none;stroke:#000000;stroke-width:3;stroke-linecap:butt;stroke-linejoin:miter;stroke-miterlimit:4;stroke-dasharray:3, 3;stroke-dashoffset:0;stroke-opacity:1"
         id="path1729" />
    </g>
    <g
       id="g1731"
       transform="matrix(0,-0.15946144,0.15946144,0,9.3292522,146.02346)">
      <path
         d="M 0,0 H 794.9622"
         style="fill:none;stroke:#000000;stroke-width:3;stroke-linecap:butt;stroke-linejoin:miter;stroke-miterlimit:4;stroke-dasharray:3, 3;stroke-dashoffset:0;stroke-opacity:1"
         id="path1733" />
    </g>
    <g
       id="g1735"
       transform="matrix(0.15946144,0,0,-0.15946144,5.7402009,15.860111)">
      <text
         transform="scale(1,-1)"
         style="font-variant:normal;font-weight:normal;font-size:45px;font-family:'Times New Roman';-inkscape-font-specification:TimesNewRomanPSMT;writing-mode:lr-tb;fill:#000000;fill-opacity:1;fill-rule:nonzero;stroke:none"
         id="text1739"><tspan
           x="0"
           y="0"
           id="tspan1737">B</tspan></text>
    </g>
    <g
       id="g1741"
       transform="matrix(0.15946144,0,0,-0.15946144,5.7402009,15.860111)">
      <text
         transform="matrix(1,0,0,-1,30.01465,-3.244629)"
         style="font-variant:normal;font-weight:normal;font-size:30px;font-family:'Times New Roman';-inkscape-font-specification:TimesNewRomanPSMT;writing-mode:lr-tb;fill:#000000;fill-opacity:1;fill-rule:nonzero;stroke:none"
         id="text1745"><tspan
           x="0"
           y="0"
           id="tspan1743">1</tspan></text>
    </g>
    <g
       id="g1747"
       transform="matrix(0.15946144,0,0,-0.15946144,283.20478,15.860111)">
      <text
         transform="scale(1,-1)"
         style="font-variant:normal;font-weight:normal;font-size:45px;font-family:'Times New Roman';-inkscape-font-specification:TimesNewRomanPSMT;writing-mode:lr-tb;fill:#000000;fill-opacity:1;fill-rule:nonzero;stroke:none"
         id="text1751"><tspan
           x="0"
           y="0"
           id="tspan1749">B</tspan></text>
    </g>
    <g
       id="g1753"
       transform="matrix(0.15946144,0,0,-0.15946144,283.20478,15.860111)">
      <text
         transform="matrix(1,0,0,-1,30.01465,-3.244629)"
         style="font-variant:normal;font-weight:normal;font-size:30px;font-family:'Times New Roman';-inkscape-font-specification:TimesNewRomanPSMT;writing-mode:lr-tb;fill:#000000;fill-opacity:1;fill-rule:nonzero;stroke:none"
         id="text1757"><tspan
           x="0"
           y="0"
           id="tspan1755">1</tspan></text>
    </g>
    <g
       id="g1759"
       transform="matrix(0.15946144,0,0,-0.15946144,169.40832,15.860111)">
      <text
         transform="scale(1,-1)"
         style="font-variant:normal;font-weight:normal;font-size:45px;font-family:'Times New Roman';-inkscape-font-specification:TimesNewRomanPSMT;writing-mode:lr-tb;fill:#000000;fill-opacity:1;fill-rule:nonzero;stroke:none"
         id="text1763"><tspan
           x="0"
           y="0"
           id="tspan1761">B</tspan></text>
    </g>
    <g
       id="g1765"
       transform="matrix(0.15946144,0,0,-0.15946144,169.40832,15.860111)">
      <text
         transform="matrix(1,0,0,-1,30.01465,-3.244629)"
         style="font-variant:normal;font-weight:normal;font-size:30px;font-family:'Times New Roman';-inkscape-font-specification:TimesNewRomanPSMT;writing-mode:lr-tb;fill:#000000;fill-opacity:1;fill-rule:nonzero;stroke:none"
         id="text1769"><tspan
           x="0"
           y="0"
           id="tspan1767">2</tspan></text>
    </g>
    <path
       d="m 210.52641,99.23907 h 3.0127 l -5.6073,-6.066392 -5.6073,6.066392 h 3.01286 v 15.62221 h 5.18904 z"
       style="fill:#000000;fill-opacity:1;fill-rule:nonzero;stroke:none;stroke-width:0.159461"
       id="path1771" />
    <g
       id="g1773"
       transform="matrix(0,-0.15946144,0.15946144,0,202.32451,114.86128)">
      <path
         d="M 97.96859,51.4342 V 70.32746 L 136.0116,35.16373 97.96859,0 V 18.89326 H 0 V 51.4342 Z"
         style="fill:none;stroke:#000000;stroke-width:2;stroke-linecap:butt;stroke-linejoin:miter;stroke-miterlimit:4;stroke-dasharray:none;stroke-opacity:1"
         id="path1775" />
    </g>
    <path
       d="m 60.263451,109.1156 h 3.012753 l -5.607254,-6.06641 -5.607271,6.06641 h 3.012753 v 15.6222 h 5.189019 z"
       style="fill:#000000;fill-opacity:1;fill-rule:nonzero;stroke:none;stroke-width:0.159461"
       id="path1777" />
    <g
       id="g1779"
       transform="matrix(0,-0.15946144,0.15946144,0,52.061679,124.7378)">
      <path
         d="M 97.96859,51.4342 V 70.32746 L 136.0116,35.16373 97.96859,0 V 18.89326 H 0 V 51.4342 Z"
         style="fill:none;stroke:#000000;stroke-width:2;stroke-linecap:butt;stroke-linejoin:miter;stroke-miterlimit:4;stroke-dasharray:none;stroke-opacity:1"
         id="path1781" />
    </g>
    <path
       d="m 256.18356,108.68317 h -3.01286 l 5.6073,6.0664 5.6073,-6.0664 h -3.01286 V 93.06096 h -5.18888 z"
       style="fill:#000000;fill-opacity:1;fill-rule:nonzero;stroke:none;stroke-width:0.159461"
       id="path1783" />
    <g
       id="g1785"
       transform="matrix(0,0.15946144,-0.15946144,0,264.3853,93.06096)">
      <path
         d="M 97.96859,51.4342 V 70.32746 L 136.0116,35.16373 97.96859,0 V 18.89326 H 0 V 51.4342 Z"
         style="fill:none;stroke:#000000;stroke-width:2;stroke-linecap:butt;stroke-linejoin:miter;stroke-miterlimit:4;stroke-dasharray:none;stroke-opacity:1"
         id="path1787" />
    </g>
    <path
       d="m 125.50619,121.74227 h -3.01275 l 5.60725,6.06639 5.60727,-6.06639 h -3.01275 v -15.62222 h -5.18902 z"
       style="fill:#000000;fill-opacity:1;fill-rule:nonzero;stroke:none;stroke-width:0.159461"
       id="path1789" />
    <g
       id="g1791"
       transform="matrix(0,0.15946144,-0.15946144,0,133.70796,106.12005)">
      <path
         d="M 97.96859,51.4342 V 70.32746 L 136.0116,35.16373 97.96859,0 V 18.89326 H 0 V 51.4342 Z"
         style="fill:none;stroke:#000000;stroke-width:2;stroke-linecap:butt;stroke-linejoin:miter;stroke-miterlimit:4;stroke-dasharray:none;stroke-opacity:1"
         id="path1793" />
    </g>
    <path
       d="m 177.71945,51.710089 v 3.012753 l 6.06639,-5.607255 -6.06639,-5.60727 v 3.012753 h -15.62228 v 5.189019 z"
       style="fill:#000000;fill-opacity:1;fill-rule:nonzero;stroke:none;stroke-width:0.159461"
       id="path1795" />
    <g
       id="g1797"
       transform="matrix(0.15946144,0,0,0.15946144,162.09717,43.508317)">
      <path
         d="M 97.96859,51.4342 V 70.32746 L 136.0116,35.16373 97.96859,0 V 18.89326 H 0 V 51.4342 Z"
         style="fill:none;stroke:#000000;stroke-width:2;stroke-linecap:butt;stroke-linejoin:miter;stroke-miterlimit:4;stroke-dasharray:none;stroke-opacity:1"
         id="path1799" />
    </g>
    <path
       d="m 14.963661,51.710089 v 3.012753 l 6.066408,-5.607255 -6.066408,-5.60727 V 46.52107 H 9.3201246 v 5.189019 z"
       style="fill:#000000;fill-opacity:1;fill-rule:nonzero;stroke:none;stroke-width:0.159461"
       id="path1801" />
    <g
       id="g1803"
       transform="matrix(0.15946144,0,0,0.15946144,9.3201246,43.508317)">
      <path
         d="M 35.39128,51.4342 V 70.32746 L 73.4343,35.16373 35.39128,0 V 18.89326 H 0 V 51.4342 Z"
         style="fill:none;stroke:#000000;stroke-width:2;stroke-linecap:butt;stroke-linejoin:miter;stroke-miterlimit:4;stroke-dasharray:none;stroke-opacity:1"
         id="path1805" />
    </g>
    <path
       d="m 278.15926,51.910883 h 9.00691 v -5.590584 h -9.00691 z"
       style="fill:#000000;fill-opacity:1;fill-rule:nonzero;stroke:none;stroke-width:0.159461"
       id="path1807" />
    <g
       id="g1809"
       transform="matrix(0.15946144,0,0,-0.15946144,54.880511,99.799864)">
      <text
         transform="scale(1,-1)"
         style="font-style:italic;font-variant:normal;font-size:45px;font-family:'Times New Roman';-inkscape-font-specification:TimesNewRomanPS-ItalicMT;writing-mode:lr-tb;fill:#000000;fill-opacity:1;fill-rule:nonzero;stroke:none"
         id="text1813"><tspan
           x="0"
           y="0"
           id="tspan1811">e</tspan></text>
    </g>
    <g
       id="g1815"
       transform="matrix(0.15946144,0,0,-0.15946144,54.880511,99.799864)">
      <text
         transform="matrix(1,0,0,-1,19.97314,-3.244629)"
         style="font-variant:normal;font-weight:normal;font-size:30px;font-family:'Times New Roman';-inkscape-font-specification:TimesNewRomanPSMT;writing-mode:lr-tb;fill:#000000;fill-opacity:1;fill-rule:nonzero;stroke:none"
         id="text1819"><tspan
           x="0"
           y="0"
           id="tspan1817">o</tspan></text>
    </g>
    <g
       id="g1821"
       transform="matrix(0.15946144,0,0,-0.15946144,119.93045,101.92424)">
      <text
         transform="scale(1,-1)"
         style="font-style:italic;font-variant:normal;font-size:45px;font-family:'Times New Roman';-inkscape-font-specification:TimesNewRomanPS-ItalicMT;writing-mode:lr-tb;fill:#000000;fill-opacity:1;fill-rule:nonzero;stroke:none"
         id="text1825"><tspan
           x="0"
           y="0"
           id="tspan1823">P</tspan></text>
    </g>
    <g
       id="g1827"
       transform="matrix(0.15946144,0,0,-0.15946144,119.93045,101.92424)">
      <text
         transform="matrix(1,0,0,-1,27.48779,0)"
         style="font-variant:normal;font-weight:normal;font-size:45px;font-family:'Times New Roman';-inkscape-font-specification:TimesNewRomanPSMT;writing-mode:lr-tb;fill:#000000;fill-opacity:1;fill-rule:nonzero;stroke:none"
         id="text1831"><tspan
           x="0"
           y="0"
           id="tspan1829">(</tspan></text>
    </g>
    <g
       id="g1833"
       transform="matrix(0.15946144,0,0,-0.15946144,119.93045,101.92424)">
      <text
         transform="matrix(1,0,0,-1,42.47314,0)"
         style="font-style:italic;font-variant:normal;font-size:45px;font-family:'Times New Roman';-inkscape-font-specification:TimesNewRomanPS-ItalicMT;writing-mode:lr-tb;fill:#000000;fill-opacity:1;fill-rule:nonzero;stroke:none"
         id="text1837"><tspan
           x="0"
           y="0"
           id="tspan1835">w</tspan></text>
    </g>
    <g
       id="g1839"
       transform="matrix(0.15946144,0,0,-0.15946144,119.93045,101.92424)">
      <text
         transform="matrix(1,0,0,-1,72.48779,-3.244629)"
         style="font-variant:normal;font-weight:normal;font-size:30px;font-family:'Times New Roman';-inkscape-font-specification:TimesNewRomanPSMT;writing-mode:lr-tb;fill:#000000;fill-opacity:1;fill-rule:nonzero;stroke:none"
         id="text1843"><tspan
           x="0"
           y="0"
           id="tspan1841">o</tspan></text>
    </g>
    <g
       id="g1845"
       transform="matrix(0.15946144,0,0,-0.15946144,119.93045,101.92424)">
      <text
         transform="matrix(1,0,0,-1,87.48779,0)"
         style="font-variant:normal;font-weight:normal;font-size:45px;font-family:'Times New Roman';-inkscape-font-specification:TimesNewRomanPSMT;writing-mode:lr-tb;fill:#000000;fill-opacity:1;fill-rule:nonzero;stroke:none"
         id="text1849"><tspan
           x="0"
           y="0"
           id="tspan1847">)</tspan></text>
    </g>
    <g
       id="g1851"
       transform="matrix(0.15946144,0,0,-0.15946144,251.13916,88.972273)">
      <text
         transform="scale(1,-1)"
         style="font-style:italic;font-variant:normal;font-size:45px;font-family:'Times New Roman';-inkscape-font-specification:TimesNewRomanPS-ItalicMT;writing-mode:lr-tb;fill:#000000;fill-opacity:1;fill-rule:nonzero;stroke:none"
         id="text1855"><tspan
           x="0"
           y="0"
           id="tspan1853">P</tspan></text>
    </g>
    <g
       id="g1857"
       transform="matrix(0.15946144,0,0,-0.15946144,251.13916,88.972273)">
      <text
         transform="matrix(1,0,0,-1,27.48779,0)"
         style="font-variant:normal;font-weight:normal;font-size:45px;font-family:'Times New Roman';-inkscape-font-specification:TimesNewRomanPSMT;writing-mode:lr-tb;fill:#000000;fill-opacity:1;fill-rule:nonzero;stroke:none"
         id="text1861"><tspan
           x="0"
           y="0"
           id="tspan1859">(</tspan></text>
    </g>
    <g
       id="g1863"
       transform="matrix(0.15946144,0,0,-0.15946144,251.13916,88.972273)">
      <text
         transform="matrix(1,0,0,-1,42.47314,0)"
         style="font-style:italic;font-variant:normal;font-size:45px;font-family:'Times New Roman';-inkscape-font-specification:TimesNewRomanPS-ItalicMT;writing-mode:lr-tb;fill:#000000;fill-opacity:1;fill-rule:nonzero;stroke:none"
         id="text1867"><tspan
           x="0"
           y="0"
           id="tspan1865">w</tspan></text>
    </g>
    <g
       id="g1869"
       transform="matrix(0.15946144,0,0,-0.15946144,251.13916,88.972273)">
      <text
         transform="matrix(1,0,0,-1,72.48779,-3.244629)"
         style="font-variant:normal;font-weight:normal;font-size:30px;font-family:'Times New Roman';-inkscape-font-specification:TimesNewRomanPSMT;writing-mode:lr-tb;fill:#000000;fill-opacity:1;fill-rule:nonzero;stroke:none"
         id="text1873"><tspan
           x="0"
           y="0"
           id="tspan1871">l</tspan></text>
    </g>
    <g
       id="g1875"
       transform="matrix(0.15946144,0,0,-0.15946144,251.13916,88.972273)">
      <text
         transform="matrix(1,0,0,-1,80.82275,0)"
         style="font-variant:normal;font-weight:normal;font-size:45px;font-family:'Times New Roman';-inkscape-font-specification:TimesNewRomanPSMT;writing-mode:lr-tb;fill:#000000;fill-opacity:1;fill-rule:nonzero;stroke:none"
         id="text1879"><tspan
           x="0"
           y="0"
           id="tspan1877">)</tspan></text>
    </g>
    <g
       id="g1881"
       transform="matrix(0.15946144,0,0,-0.15946144,201.9544,88.972273)">
      <text
         transform="scale(1,-1)"
         style="font-style:italic;font-variant:normal;font-size:45px;font-family:'Times New Roman';-inkscape-font-specification:TimesNewRomanPS-ItalicMT;writing-mode:lr-tb;fill:#000000;fill-opacity:1;fill-rule:nonzero;stroke:none"
         id="text1885"><tspan
           x="0"
           y="0"
           id="tspan1883">E</tspan></text>
    </g>
    <g
       id="g1887"
       transform="matrix(0.15946144,0,0,-0.15946144,201.9544,88.972273)">
      <text
         transform="matrix(1,0,0,-1,27.48779,0)"
         style="font-variant:normal;font-weight:normal;font-size:45px;font-family:'Times New Roman';-inkscape-font-specification:TimesNewRomanPSMT;writing-mode:lr-tb;fill:#000000;fill-opacity:1;fill-rule:nonzero;stroke:none"
         id="text1891"><tspan
           x="0"
           y="0"
           id="tspan1889">(</tspan></text>
    </g>
    <g
       id="g1893"
       transform="matrix(0.15946144,0,0,-0.15946144,201.9544,88.972273)">
      <text
         transform="matrix(1,0,0,-1,42.47314,0)"
         style="font-style:italic;font-variant:normal;font-size:45px;font-family:'Times New Roman';-inkscape-font-specification:TimesNewRomanPS-ItalicMT;writing-mode:lr-tb;fill:#000000;fill-opacity:1;fill-rule:nonzero;stroke:none"
         id="text1897"><tspan
           x="0"
           y="0"
           id="tspan1895">s</tspan></text>
    </g>
    <g
       id="g1899"
       transform="matrix(0.15946144,0,0,-0.15946144,201.9544,88.972273)">
      <text
         transform="matrix(1,0,0,-1,59.98535,0)"
         style="font-variant:normal;font-weight:normal;font-size:45px;font-family:'Times New Roman';-inkscape-font-specification:TimesNewRomanPSMT;writing-mode:lr-tb;fill:#000000;fill-opacity:1;fill-rule:nonzero;stroke:none"
         id="text1903"><tspan
           x="0"
           y="0"
           id="tspan1901">)</tspan></text>
    </g>
    <g
       id="g1905"
       transform="matrix(0.15946144,0,0,-0.15946144,187.23722,51.020307)">
      <text
         transform="scale(1,-1)"
         style="font-style:italic;font-variant:normal;font-size:45px;font-family:'Times New Roman';-inkscape-font-specification:TimesNewRomanPS-ItalicMT;writing-mode:lr-tb;fill:#000000;fill-opacity:1;fill-rule:nonzero;stroke:none"
         id="text1909"><tspan
           x="0"
           y="0"
           id="tspan1907">A</tspan></text>
    </g>
    <g
       id="g1911"
       transform="matrix(0.15946144,0,0,-0.15946144,187.23722,51.020307)">
      <text
         transform="matrix(1,0,0,-1,27.48779,0)"
         style="font-variant:normal;font-weight:normal;font-size:45px;font-family:'Times New Roman';-inkscape-font-specification:TimesNewRomanPSMT;writing-mode:lr-tb;fill:#000000;fill-opacity:1;fill-rule:nonzero;stroke:none"
         id="text1915"><tspan
           x="0"
           y="0"
           id="tspan1913">(</tspan></text>
    </g>
    <g
       id="g1917"
       transform="matrix(0.15946144,0,0,-0.15946144,187.23722,51.020307)">
      <text
         transform="matrix(1,0,0,-1,42.47314,0)"
         style="font-style:italic;font-variant:normal;font-size:45px;font-family:'Times New Roman';-inkscape-font-specification:TimesNewRomanPS-ItalicMT;writing-mode:lr-tb;fill:#000000;fill-opacity:1;fill-rule:nonzero;stroke:none"
         id="text1921"><tspan
           x="0"
           y="0"
           id="tspan1919">w</tspan></text>
    </g>
    <g
       id="g1923"
       transform="matrix(0.15946144,0,0,-0.15946144,187.23722,51.020307)">
      <text
         transform="matrix(1,0,0,-1,72.48779,-3.244629)"
         style="font-variant:normal;font-weight:normal;font-size:30px;font-family:'Times New Roman';-inkscape-font-specification:TimesNewRomanPSMT;writing-mode:lr-tb;fill:#000000;fill-opacity:1;fill-rule:nonzero;stroke:none"
         id="text1927"><tspan
           x="0"
           y="0"
           id="tspan1925">o</tspan></text>
    </g>
    <g
       id="g1929"
       transform="matrix(0.15946144,0,0,-0.15946144,187.23722,51.020307)">
      <text
         transform="matrix(1,0,0,-1,87.48779,0)"
         style="font-variant:normal;font-weight:normal;font-size:45px;font-family:'Times New Roman';-inkscape-font-specification:TimesNewRomanPSMT;writing-mode:lr-tb;fill:#000000;fill-opacity:1;fill-rule:nonzero;stroke:none"
         id="text1933"><tspan
           x="0"
           y="0"
           id="tspan1931">)</tspan></text>
    </g>
    <g
       id="g1935"
       transform="matrix(0.15946144,0,0,-0.15946144,24.486188,51.020307)">
      <text
         transform="scale(1,-1)"
         style="font-style:italic;font-variant:normal;font-size:45px;font-family:'Times New Roman';-inkscape-font-specification:TimesNewRomanPS-ItalicMT;writing-mode:lr-tb;fill:#000000;fill-opacity:1;fill-rule:nonzero;stroke:none"
         id="text1939"><tspan
           x="0"
           y="0"
           id="tspan1937">A</tspan></text>
    </g>
    <g
       id="g1941"
       transform="matrix(0.15946144,0,0,-0.15946144,24.486188,51.020307)">
      <text
         transform="matrix(1,0,0,-1,27.48779,0)"
         style="font-variant:normal;font-weight:normal;font-size:45px;font-family:'Times New Roman';-inkscape-font-specification:TimesNewRomanPSMT;writing-mode:lr-tb;fill:#000000;fill-opacity:1;fill-rule:nonzero;stroke:none"
         id="text1945"><tspan
           x="0"
           y="0"
           id="tspan1943">(</tspan></text>
    </g>
    <g
       id="g1947"
       transform="matrix(0.15946144,0,0,-0.15946144,24.486188,51.020307)">
      <text
         transform="matrix(1,0,0,-1,42.47314,0)"
         style="font-style:italic;font-variant:normal;font-size:45px;font-family:'Times New Roman';-inkscape-font-specification:TimesNewRomanPS-ItalicMT;writing-mode:lr-tb;fill:#000000;fill-opacity:1;fill-rule:nonzero;stroke:none"
         id="text1951"><tspan
           x="0"
           y="0"
           id="tspan1949">w</tspan></text>
    </g>
    <g
       id="g1953"
       transform="matrix(0.15946144,0,0,-0.15946144,24.486188,51.020307)">
      <text
         transform="matrix(1,0,0,-1,72.48779,-3.244629)"
         style="font-variant:normal;font-weight:normal;font-size:30px;font-family:'Times New Roman';-inkscape-font-specification:TimesNewRomanPSMT;writing-mode:lr-tb;fill:#000000;fill-opacity:1;fill-rule:nonzero;stroke:none"
         id="text1957"><tspan
           x="0"
           y="0"
           id="tspan1955">l</tspan></text>
    </g>
    <g
       id="g1959"
       transform="matrix(0.15946144,0,0,-0.15946144,24.486188,51.020307)">
      <text
         transform="matrix(1,0,0,-1,80.82275,0)"
         style="font-variant:normal;font-weight:normal;font-size:45px;font-family:'Times New Roman';-inkscape-font-specification:TimesNewRomanPSMT;writing-mode:lr-tb;fill:#000000;fill-opacity:1;fill-rule:nonzero;stroke:none"
         id="text1963"><tspan
           x="0"
           y="0"
           id="tspan1961">)</tspan></text>
    </g>
    <g
       id="g1965"
       transform="matrix(0.15946144,0,0,-0.15946144,186.36146,131.85898)">
      <text
         transform="scale(1,-1)"
         style="font-style:italic;font-variant:normal;font-size:45px;font-family:'Times New Roman';-inkscape-font-specification:TimesNewRomanPS-ItalicMT;writing-mode:lr-tb;fill:#000000;fill-opacity:1;fill-rule:nonzero;stroke:none"
         id="text1969"><tspan
           x="0"
           y="0"
           id="tspan1967">R</tspan></text>
    </g>
    <g
       id="g1971"
       transform="matrix(0.15946144,0,0,-0.15946144,186.36146,131.85898)">
      <text
         transform="matrix(1,0,0,-1,27.48779,0)"
         style="font-variant:normal;font-weight:normal;font-size:45px;font-family:'Times New Roman';-inkscape-font-specification:TimesNewRomanPSMT;writing-mode:lr-tb;fill:#000000;fill-opacity:1;fill-rule:nonzero;stroke:none"
         id="text1975"><tspan
           x="0"
           y="0"
           id="tspan1973">(</tspan></text>
    </g>
    <g
       id="g1977"
       transform="matrix(0.15946144,0,0,-0.15946144,186.36146,131.85898)">
      <text
         transform="matrix(1,0,0,-1,42.47314,0)"
         style="font-style:italic;font-variant:normal;font-size:45px;font-family:'Times New Roman';-inkscape-font-specification:TimesNewRomanPS-ItalicMT;writing-mode:lr-tb;fill:#000000;fill-opacity:1;fill-rule:nonzero;stroke:none"
         id="text1981"><tspan
           x="0"
           y="0"
           id="tspan1979">s</tspan></text>
    </g>
    <g
       id="g1983"
       transform="matrix(0.15946144,0,0,-0.15946144,186.36146,131.85898)">
      <text
         transform="matrix(1,0,0,-1,59.98535,0)"
         style="font-variant:normal;font-weight:normal;font-size:45px;font-family:'Times New Roman';-inkscape-font-specification:TimesNewRomanPSMT;writing-mode:lr-tb;fill:#000000;fill-opacity:1;fill-rule:nonzero;stroke:none"
         id="text1987"><tspan
           x="0"
           y="0"
           id="tspan1985">)</tspan></text>
    </g>
    <path
       style="fill:none;stroke:none;stroke-width:0.266015px;stroke-linecap:butt;stroke-linejoin:miter;stroke-opacity:1"
       d="M 9.5587529,117.08594 9.3292832,146.34539"
       id="path2436" />
    <path
       style="fill:none;stroke:none;stroke-width:0.264583px;stroke-linecap:butt;stroke-linejoin:miter;stroke-opacity:1"
       d="m 172.99604,117.1725 0.0129,29.65005"
       id="path2438" />
    <path
       style="fill:#deaa87;stroke:none;stroke-width:0.264583px;stroke-linecap:butt;stroke-linejoin:miter;stroke-opacity:1"
       d="m 287.1407,113.26298 0.14248,33.12708"
       id="path2440" />
    <path
       style="fill:none;stroke:none;stroke-width:0.264583px;stroke-linecap:butt;stroke-linejoin:miter;stroke-opacity:1"
       d="M 9.558784,117.086 9.3292831,146.34539"
       id="path2448" />
    <path
       style="fill:none;stroke:none;stroke-width:0.264583px;stroke-linecap:butt;stroke-linejoin:miter;stroke-opacity:1"
       d="m 172.99604,117.1725 0.0129,29.65005"
       id="path2450" />
    <path
       style="fill:none;stroke:none;stroke-width:0.264583px;stroke-linecap:butt;stroke-linejoin:miter;stroke-opacity:1"
       d="m 286.83093,112.44018 v 34.77345"
       id="path2452" />
    <path
       style="fill:#d38d5f;stroke:none;stroke-width:0.197495;stroke-opacity:0"
       d="m 173.2527,139.30232 c 0.0112,-3.7204 0.0273,-6.84489 0.0358,-6.94332 0.012,-0.13975 1.20706,-0.17895 5.45551,-0.17895 h 5.44013 v -2.79164 -2.79165 h -5.44013 -5.44012 l -0.0149,-0.32211 c -0.008,-0.17717 -0.0254,-2.25479 -0.0383,-4.61696 -0.0255,-4.67983 0.0842,-5.68207 0.81988,-7.49264 0.82577,-2.03225 2.7803,-4.37505 4.73505,-5.6757 3.46502,-2.30554 7.47548,-2.86623 16.4019,-2.29307 1.77162,0.11375 4.71895,0.2086 6.54963,0.21078 l 3.3285,0.004 v 4.36642 4.36642 h 2.86322 2.86323 v -4.6259 -4.6259 l 2.89902,-0.24573 c 5.23988,-0.44415 8.55484,-0.55905 11.20237,-0.38827 2.22716,0.14366 3.33567,0.2833 9.05995,1.14126 4.83865,0.72523 9.12846,0.74901 16.78066,0.093 2.32279,-0.19912 4.43263,-0.3633 4.68854,-0.36484 l 0.46527,-0.003 v 1.14529 1.14529 h -1.5867 c -0.87269,0 -1.56523,0.0575 -1.53899,0.12783 0.0814,0.21807 5.87614,6.45759 5.99726,6.45759 0.12698,0 5.90483,-6.22916 5.98055,-6.44771 0.0287,-0.0828 -0.58542,-0.13771 -1.53896,-0.13771 h -1.58671 v -1.23898 -1.23899 l 1.82531,0.091 c 1.00392,0.05 3.14596,0.26489 4.76011,0.47743 2.65197,0.3492 3.39698,0.38798 7.7307,0.40241 4.0694,0.0135 4.91519,0.0527 5.58329,0.25837 1.97175,0.60702 3.20132,1.81174 4.07371,3.99139 0.27337,0.68302 0.62447,1.45136 0.78018,1.70743 0.192,0.31571 0.25611,0.60075 0.19915,0.88548 -0.0554,0.27679 -0.0159,0.46747 0.11578,0.55947 0.15383,0.10749 0.15859,0.15627 0.0209,0.21218 -0.25305,0.10268 -0.22318,0.6214 0.0358,0.6214 0.11811,0 0.21476,0.0966 0.21476,0.21474 0,0.11811 -0.0967,0.21474 -0.21476,0.21474 -0.1193,0 -0.21473,0.12726 -0.21473,0.28633 0,0.15748 0.0644,0.28632 0.14316,0.28632 0.0787,0 0.14317,0.0966 0.14317,0.21474 0,0.11811 -0.057,0.21475 -0.12666,0.21475 -0.0696,0 -0.12663,0.32211 -0.12663,0.7158 0,0.51432 0.0558,0.71581 0.19823,0.71581 0.10901,0 0.19822,0.0966 0.19822,0.21474 0,0.11811 -0.0967,0.21474 -0.21476,0.21474 -0.1193,0 -0.21473,0.12726 -0.21473,0.28632 0,0.15907 0.0954,0.28633 0.21473,0.28633 0.11811,0 0.21476,0.0966 0.21476,0.21474 0,0.11811 -0.0967,0.21474 -0.21476,0.21474 -0.25895,0 -0.28882,0.51873 -0.0358,0.6214 0.13158,0.0534 0.13578,0.10391 0.0159,0.19088 -0.24485,0.1776 -0.21244,1.62146 0.0364,1.62146 0.10901,0 0.19823,0.0966 0.19823,0.21475 0,0.1181 -0.0967,0.21474 -0.21476,0.21474 -0.25911,0 -0.28824,0.51448 -0.0358,0.63229 0.14314,0.0668 0.14314,0.10022 0,0.16702 -0.23209,0.10831 -0.23209,0.7268 0,0.83511 0.14314,0.0668 0.14314,0.10022 0,0.16702 -0.21227,0.0991 -0.24243,0.6323 -0.0358,0.6323 0.0787,0 0.14316,0.0966 0.14316,0.21474 0,0.11811 -0.057,0.21474 -0.12665,0.21474 -0.18736,0 -0.15516,1.4834 0.0352,1.62147 0.11988,0.087 0.11567,0.13748 -0.0159,0.19088 -0.25305,0.10267 -0.22318,0.6214 0.0358,0.6214 0.11811,0 0.21476,0.0966 0.21476,0.21474 0,0.11811 -0.0967,0.21474 -0.21476,0.21474 -0.25895,0 -0.28882,0.51873 -0.0358,0.6214 0.13158,0.0534 0.13578,0.10391 0.0159,0.19088 -0.19035,0.13806 -0.22255,1.62146 -0.0352,1.62146 0.0697,0 0.12665,0.0966 0.12665,0.21474 0,0.11811 -0.0644,0.21475 -0.14316,0.21475 -0.20664,0 -0.17648,0.53324 0.0358,0.63229 0.14314,0.0668 0.14314,0.10022 0,0.16702 -0.0984,0.0459 -0.17896,0.23383 -0.17896,0.41756 0,0.18372 0.0805,0.37162 0.17896,0.41755 0.14314,0.0668 0.14314,0.10021 0,0.16702 -0.25246,0.11781 -0.22333,0.6323 0.0358,0.6323 0.11811,0 0.21476,0.0966 0.21476,0.21474 0,0.11811 -0.0967,0.21474 -0.21476,0.21474 -0.1193,0 -0.21474,0.12726 -0.21474,0.28632 0,0.15748 0.0644,0.28633 0.14317,0.28633 0.0787,0 0.14316,0.0966 0.14316,0.21474 0,0.11811 -0.0644,0.21474 -0.14316,0.21474 -0.20664,0 -0.17648,0.53325 0.0358,0.6323 0.14314,0.0668 0.14314,0.10021 0,0.16702 -0.25246,0.11781 -0.22333,0.63229 0.0358,0.63229 0.11811,0 0.21476,0.0966 0.21476,0.21475 0,0.1181 -0.0967,0.21474 -0.21476,0.21474 -0.1193,0 -0.21474,0.12725 -0.21474,0.28632 0,0.15907 0.0954,0.28632 0.21474,0.28632 0.11811,0 0.21476,0.0966 0.21476,0.21474 0,0.11811 -0.0892,0.21475 -0.19823,0.21475 -0.24884,0 -0.28125,1.44386 -0.0364,1.62146 0.11988,0.087 0.11567,0.13749 -0.0159,0.19088 -0.25305,0.10267 -0.22318,0.6214 0.0358,0.6214 0.11811,0 0.21476,0.0966 0.21476,0.21474 0,0.11811 -0.0967,0.21474 -0.21476,0.21474 -0.25895,0 -0.28882,0.51873 -0.0358,0.6214 0.13158,0.0534 0.13578,0.10391 0.0159,0.19088 -0.19035,0.13807 -0.22255,1.62146 -0.0352,1.62146 0.0697,0 0.12665,0.0966 0.12665,0.21475 0,0.1181 -0.0644,0.21474 -0.14316,0.21474 -0.20664,0 -0.17648,0.53324 0.0358,0.63229 0.14314,0.0668 0.14314,0.10022 0,0.16703 -0.0984,0.0459 -0.17896,0.23383 -0.17896,0.41755 0,0.18372 0.0805,0.37162 0.17896,0.41755 0.14314,0.0668 0.14314,0.10022 0,0.16702 -0.21227,0.0991 -0.24243,0.6323 -0.0358,0.6323 0.0787,0 0.14316,0.0644 0.14316,0.14316 0,0.0952 -19.02851,0.14316 -56.79925,0.14316 h -56.79924 z m 52.44821,3.34382 c 0,-0.0703 -0.0966,-0.16492 -0.21474,-0.21025 -0.1789,-0.0686 -0.21474,-0.47743 -0.21474,-2.44906 0,-2.56046 0.0234,-2.49719 -0.81302,-2.19473 -0.54281,0.19628 -0.60182,0.33428 -0.18911,0.44221 0.26859,0.0702 0.28632,0.19527 0.28632,2.01974 0,1.78982 -0.0228,1.95912 -0.28632,2.12368 -0.47448,0.29632 -0.33005,0.39626 0.57264,0.39626 0.47243,0 0.85897,-0.0575 0.85897,-0.12785 z m 1.7365,-0.0252 c 0.17822,-0.0954 0.35007,-0.10304 0.45586,-0.0203 0.0934,0.073 1.19166,0.14272 2.44059,0.15488 1.9738,0.0192 2.25993,-0.006 2.18771,-0.19443 -0.11163,-0.29091 0.45454,-0.29042 0.87023,7.9e-4 0.35746,0.25037 1.70601,0.26224 2.43777,0.0215 0.5323,-0.17515 0.59161,-0.31548 0.17895,-0.42339 -0.27088,-0.0708 -0.28632,-0.19527 -0.28632,-2.30727 0,-1.43911 -0.0525,-2.23237 -0.14776,-2.23237 -0.0813,0 -0.38727,0.10771 -0.68001,0.23937 -0.47014,0.21142 -0.49466,0.246 -0.21015,0.29628 0.26976,0.0477 0.32212,0.14837 0.32212,0.6196 v 0.56268 h -0.62471 c -0.72687,0 -1.30703,0.4659 -1.49669,1.20191 -0.0779,0.30223 -0.21489,0.45909 -0.42818,0.4902 -0.27634,0.0403 -0.31365,-0.0198 -0.31365,-0.505 0,-0.30292 -0.10026,-0.69389 -0.2228,-0.86884 -0.20098,-0.28694 -0.32366,-0.31368 -1.25266,-0.27301 -0.56643,0.0248 -1.26911,0.13348 -1.56153,0.24153 -0.47222,0.1745 -0.56152,0.16945 -0.79866,-0.0452 -0.38908,-0.35211 -1.52074,-0.32536 -1.8908,0.0447 -0.45878,0.45877 -0.35629,0.96043 0.17895,0.87592 0.21708,-0.0343 0.0977,0.31107 -0.25053,0.72496 -0.41416,0.49219 -0.4464,0.78597 -0.13505,1.23049 0.24168,0.34505 0.76062,0.41485 1.22732,0.16508 z m -34.37728,-9.26878 c 0,-0.064 -0.19178,-0.30011 -0.42617,-0.52467 -0.60225,-0.57699 -0.78562,-1.23432 -0.77964,-2.79482 0.004,-1.11899 0.0615,-1.46802 0.32255,-1.96935 0.17454,-0.33513 0.44468,-0.68884 0.6003,-0.78604 0.31368,-0.19589 0.37279,-0.39416 0.11752,-0.39416 -0.37223,0 -1.12487,0.76265 -1.49085,1.5107 -0.51583,1.05431 -0.54414,2.43166 -0.0701,3.41088 0.40153,0.82944 1.7264,2.017 1.7264,1.54746 z m 4.27714,-0.88403 c 1.13024,-1.56025 0.91031,-3.91266 -0.47991,-5.13329 -0.82738,-0.72644 -1.06922,-0.59183 -0.36916,0.20549 0.53647,0.61101 0.72201,1.28828 0.72201,2.6355 0,1.34723 -0.18554,2.0245 -0.72201,2.63551 -0.23192,0.26414 -0.42168,0.52173 -0.42168,0.57241 0,0.23848 0.90937,-0.41675 1.27075,-0.91562 z m -2.32156,-0.79899 c 0.37228,-0.37228 0.37749,-0.44597 0.10921,-1.54501 -0.0905,-0.37085 -0.071,-0.40041 0.20606,-0.31246 0.21607,0.0686 0.30606,0.0364 0.30606,-0.10936 0,-0.11357 0.037,-0.39171 0.0823,-0.61808 0.081,-0.40521 0.0716,-0.41202 -0.60844,-0.43889 -1.34835,-0.0533 -1.74936,0.75133 -0.90548,1.81681 0.47931,0.60518 0.53149,0.88242 0.21546,1.1447 -0.28212,0.23414 -0.93126,-0.16692 -0.93126,-0.57535 0,-0.38525 -0.23272,-0.35843 -0.33925,0.0391 -0.2146,0.80075 -0.14506,0.89238 0.70512,0.92916 0.68663,0.0297 0.84505,-0.0154 1.16022,-0.33061 z m -6.82306,0.0815 c 0,-0.0787 -0.13602,-0.14316 -0.30226,-0.14316 -0.2696,0 -0.29179,-0.0558 -0.20538,-0.51635 0.16305,-0.86914 0.33984,-1.20159 0.639,-1.20159 0.22248,0 0.34938,0.21042 0.60437,1.00213 l 0.32276,1.00213 h 0.68762 c 0.69444,0 0.96098,-0.22758 0.36559,-0.31216 -0.24886,-0.0353 -0.39331,-0.24093 -0.63571,-0.90471 -0.40687,-1.11416 -0.40598,-1.12568 0.10129,-1.31716 0.59246,-0.22363 0.94359,-1.03905 0.68217,-1.58424 -0.10099,-0.21061 -0.34467,-0.4644 -0.54151,-0.56396 -0.42652,-0.21574 -2.57691,-0.25087 -2.57691,-0.0421 0,0.0787 0.0987,0.14317 0.21924,0.14317 0.38588,0 0.35837,0.31915 -0.19127,2.219 -0.43251,1.49496 -0.60088,1.88889 -0.85584,2.00241 -0.55721,0.24808 -0.34467,0.35975 0.68471,0.35975 0.57265,0 1.00213,-0.0614 1.00213,-0.14316 z m 42.58228,-7.0072 c 0.42561,-0.39984 0.50693,-1.34157 0.15592,-1.80565 -0.1156,-0.15284 -0.21224,-0.39762 -0.21474,-0.54395 -0.004,-0.21352 0.0667,-0.24816 0.35649,-0.17543 0.39264,0.0985 0.42931,0.0456 0.54428,-0.78644 l 0.0708,-0.51212 -1.03875,-0.0268 c -1.31198,-0.0339 -1.79845,0.26524 -1.79845,1.1058 0,0.42773 0.13065,0.68808 0.65153,1.2983 0.74634,0.87437 0.80404,1.33952 0.17512,1.41199 -0.31186,0.0359 -0.4483,-0.0503 -0.67945,-0.42949 -0.15907,-0.26094 -0.31287,-0.53887 -0.34177,-0.61761 -0.0991,-0.26999 -0.24653,0.0359 -0.35841,0.74367 l -0.11197,0.70828 1.11166,-0.0133 c 0.96644,-0.0116 1.15948,-0.0582 1.47776,-0.35723 z"
       id="path2454" />
    <path
       style="fill:#d38d5f;stroke:none;stroke-width:0.0872919;stroke-opacity:0"
       d="m 188.17985,129.20672 c 0,-0.1345 0.46317,-1.66833 0.52978,-1.7544 0.0835,-0.10789 0.54382,-0.0548 0.76147,0.0878 0.52048,0.34103 0.29991,1.31454 -0.36639,1.61711 -0.29001,0.1317 -0.92486,0.16567 -0.92486,0.0495 z"
       id="path2456" />
    <path
       style="fill:#d38d5f;stroke:none;stroke-width:0.0872919;stroke-opacity:0"
       d="m 194.58662,129.77688 c -0.30994,-0.37081 -0.3515,-0.62341 -0.1283,-0.77974 0.37602,-0.26338 0.8718,0.0771 0.8718,0.59866 0,0.16844 -0.0185,0.19137 -0.12656,0.15707 -0.10777,-0.0342 -0.12655,-0.0114 -0.12655,0.15392 0,0.29265 -0.17622,0.24596 -0.49039,-0.12991 z"
       id="path2458" />
    <path
       style="fill:#d38d5f;stroke:none;stroke-width:0.0106514;stroke-opacity:0"
       d="m 226.35756,141.23173 c 0,-0.008 0.0248,-0.0451 0.055,-0.083 0.0696,-0.0873 0.17903,-0.25185 0.2207,-0.33194 0.0624,-0.12 0.0871,-0.23143 0.063,-0.28435 -0.005,-0.0105 -0.0187,-0.0233 -0.0309,-0.0283 -0.0308,-0.0127 -0.0278,-0.0324 0.009,-0.0565 0.0451,-0.0298 0.0901,-0.0914 0.1099,-0.15017 0.0161,-0.0479 0.0172,-0.0633 0.0155,-0.21376 -0.001,-0.10025 0.002,-0.17689 0.007,-0.20075 0.023,-0.10146 0.11394,-0.21147 0.21593,-0.26135 0.0909,-0.0444 0.1416,-0.0547 0.26581,-0.0539 0.12661,8e-4 0.19638,0.0161 0.28358,0.0619 0.18572,0.0976 0.26896,0.27481 0.29199,0.62169 0.005,0.0692 0.007,0.15806 0.006,0.1975 l -0.002,0.0717 -0.20075,0.0759 c -0.65586,0.24804 -0.99456,0.41547 -1.2287,0.60739 -0.0528,0.0433 -0.08,0.0528 -0.08,0.0279 z"
       id="path2486" />
    <path
       style="fill:#d38d5f;stroke:none;stroke-width:0.0106514;stroke-opacity:0"
       d="m 227.05224,142.28951 c -0.078,-0.0258 -0.14006,-0.0647 -0.20043,-0.12545 -0.11874,-0.11957 -0.16967,-0.24917 -0.16971,-0.43188 -4e-5,-0.18144 0.0582,-0.32044 0.19191,-0.45817 0.13329,-0.13728 0.30236,-0.24021 0.61083,-0.37189 0.17034,-0.0727 0.36453,-0.15051 0.37567,-0.15051 0.009,0 0.0104,0.10285 0.0104,0.602 v 0.602 l -0.0714,0.0555 c -0.1568,0.12192 -0.32278,0.21781 -0.45447,0.26257 -0.0935,0.0318 -0.22332,0.0388 -0.29276,0.0158 z"
       id="path2488" />
    <path
       style="fill:#d38d5f;stroke:none;stroke-width:0.0106514;stroke-opacity:0"
       d="m 230.31075,142.7509 c -0.47127,-0.005 -0.83568,-0.0147 -1.18904,-0.0306 -0.23118,-0.0104 -0.58872,-0.0312 -0.60032,-0.0349 -0.005,-0.002 -0.01,-0.01 -0.01,-0.0179 0,-0.0101 0.0171,-0.0249 0.0539,-0.0468 0.0297,-0.0176 0.0792,-0.0524 0.11002,-0.0773 0.0737,-0.0594 0.21327,-0.20352 0.27859,-0.28762 l 0.0521,-0.067 -0.002,-0.10073 -0.002,-0.10073 -0.11582,0.10828 c -0.15074,0.14093 -0.18346,0.16351 -0.24318,0.16783 -0.0571,0.004 -0.0774,-7.9e-4 -0.10781,-0.0265 -0.0307,-0.0259 -0.0438,-0.0515 -0.0592,-0.11657 -0.0109,-0.0459 -0.0131,-0.16822 -0.0183,-0.99434 -0.006,-0.97032 -0.008,-1.03967 -0.0394,-1.19677 -0.0271,-0.13682 -0.1155,-0.28258 -0.2251,-0.37131 -0.0447,-0.0362 -0.0581,-0.0649 -0.0301,-0.0649 0.0198,0 0.0941,0.0496 0.16523,0.11032 0.21722,0.18537 0.31565,0.19191 0.71761,0.0476 0.11862,-0.0426 0.3189,-0.0987 0.40971,-0.1149 0.0252,-0.004 0.0289,-0.003 0.0289,0.01 0,0.0121 -0.0384,0.0304 -0.21426,0.10155 -0.11784,0.0477 -0.21533,0.0877 -0.21664,0.0889 -0.001,10e-4 0.007,0.0243 0.0183,0.0513 0.0114,0.027 0.0235,0.0566 0.027,0.0658 l 0.006,0.0167 0.0719,-0.0231 c 0.092,-0.0296 0.18871,-0.0373 0.24176,-0.0192 0.0548,0.0187 0.0851,0.0458 0.1113,0.0997 0.0321,0.066 0.0455,0.15327 0.0546,0.35608 0.0103,0.23197 0.0102,1.7057 -2.3e-4,1.81543 -0.0206,0.21724 -0.0673,0.32264 -0.16496,0.37227 -0.0612,0.0311 -0.10854,0.0413 -0.21496,0.0462 l -0.0984,0.005 v 0.0645 0.0645 h 0.79527 0.79527 v -0.0644 -0.0644 l -0.10617,-0.005 c -0.11754,-0.006 -0.19312,-0.0191 -0.23924,-0.0426 -0.0403,-0.0206 -0.095,-0.0769 -0.12088,-0.1244 -0.0479,-0.0879 -0.0461,-0.0469 -0.049,-1.13124 l -0.003,-0.98822 0.0872,-0.085 c 0.0939,-0.0916 0.21171,-0.18431 0.29863,-0.23508 0.24738,-0.14447 0.52906,-0.16923 0.69729,-0.0613 0.10356,0.0665 0.17494,0.20434 0.21051,0.40666 0.025,0.1421 0.0286,0.30348 0.0256,1.14042 -0.003,0.77099 -0.004,0.82899 -0.0169,0.86862 -0.0338,0.10292 -0.0918,0.1784 -0.16284,0.21203 -0.0539,0.0255 -0.15721,0.0428 -0.25575,0.0428 h -0.0801 v 0.0656 0.0656 h 0.74951 c 0.69338,0 0.74933,0.001 0.74702,0.0128 -0.002,0.008 -0.0189,0.0183 -0.0425,0.0264 -0.1829,0.0621 -0.69807,0.0769 -2.12573,0.0607 z"
       id="path2490" />
    <path
       style="fill:#d38d5f;stroke:none;stroke-width:0.0106514;stroke-opacity:0"
       d="m 230.17949,139.70261 v -0.2769 l 0.0405,-0.005 c 0.13939,-0.0161 0.57736,-0.0437 0.69489,-0.0437 0.0398,-2e-5 0.0521,0.0174 0.0193,0.0274 -0.0347,0.0106 -0.17329,0.0833 -0.23356,0.12255 -0.12836,0.0836 -0.30117,0.23589 -0.4212,0.37124 -0.0416,0.0469 -0.0778,0.081 -0.0859,0.081 -0.0133,0 -0.0141,-0.0142 -0.0141,-0.27689 z"
       id="path2492" />
    <path
       style="fill:#d38d5f;stroke:none;stroke-width:0.0106514;stroke-opacity:0"
       d="m 233.53816,142.62868 c -0.0726,-0.0271 -0.0927,-0.0375 -0.1742,-0.0906 -0.0839,-0.0547 -0.2178,-0.11809 -0.31409,-0.14873 -0.19438,-0.0618 -0.39633,-0.0637 -0.48631,-0.004 -0.0387,0.0255 -0.0539,0.0509 -0.0584,0.0975 l -0.004,0.0391 -0.0549,-0.005 c -0.13316,-0.0122 -0.19891,-0.0373 -0.25524,-0.0975 -0.0429,-0.0459 -0.0697,-0.10093 -0.0867,-0.17849 -0.0109,-0.0496 -0.0131,-0.17312 -0.0175,-0.99862 -0.003,-0.51808 -0.007,-0.94718 -0.01,-0.95355 -0.003,-0.006 -0.007,-0.042 -0.01,-0.0791 -0.005,-0.064 -0.004,-0.0676 0.0105,-0.0676 0.008,0 0.0172,0.003 0.0193,0.006 0.002,0.004 0.0113,0.0565 0.0204,0.11774 0.0116,0.0787 0.0183,0.17589 0.0229,0.33142 0.007,0.24334 0.0179,0.32081 0.0526,0.37763 0.0329,0.0539 0.0651,0.0665 0.1675,0.0655 0.15381,-0.002 0.25006,-0.0389 0.34383,-0.13351 0.0879,-0.0886 0.13191,-0.18098 0.20077,-0.42115 0.0971,-0.33846 0.30221,-0.64849 0.55449,-0.83798 0.0772,-0.058 0.0982,-0.0296 0.0256,0.0346 -0.0571,0.0504 -0.16866,0.17205 -0.21603,0.23549 -0.2332,0.31232 -0.36491,0.62793 -0.41566,0.99602 -0.0162,0.11718 -0.0182,0.39824 -0.004,0.51345 0.042,0.33464 0.15202,0.60673 0.33858,0.83774 0.0977,0.12092 0.25262,0.25647 0.37515,0.32814 0.0333,0.0195 0.0517,0.0352 0.0517,0.0441 0,0.0181 -0.008,0.0172 -0.0772,-0.008 z"
       id="path2494" />
    <path
       style="fill:#d38d5f;stroke:none;stroke-width:0.0106514;stroke-opacity:0"
       d="m 234.34115,142.34655 c -0.17323,-0.0364 -0.3022,-0.11164 -0.45603,-0.26606 -0.24741,-0.24837 -0.36274,-0.54376 -0.394,-1.00923 -0.0301,-0.44749 0.0545,-0.85581 0.23297,-1.12568 0.0525,-0.0794 0.17743,-0.2086 0.25055,-0.25915 0.21454,-0.14831 0.44559,-0.16045 0.68005,-0.0357 0.19352,0.10294 0.32168,0.27191 0.39271,0.51773 0.043,0.14888 0.0426,0.13927 0.0427,1.04398 l 3e-5,0.83528 -0.0618,0.0561 c -0.13331,0.12096 -0.25541,0.19548 -0.37829,0.23089 -0.074,0.0213 -0.23449,0.0275 -0.30884,0.0119 z"
       id="path2496" />
    <path
       style="fill:#d38d5f;stroke:none;stroke-width:0.0106514;stroke-opacity:0"
       d="m 230.95551,123.0614 c -0.1214,-0.18882 -0.3255,-0.43526 -0.70064,-0.84599 -0.30362,-0.33241 -0.35831,-0.41273 -0.38851,-0.57057 -0.0312,-0.16282 0.004,-0.2904 0.10804,-0.38732 0.0924,-0.0865 0.19858,-0.12585 0.33894,-0.12571 0.21322,2.1e-4 0.39214,0.0846 0.58062,0.274 0.15211,0.15282 0.24437,0.31978 0.30117,0.545 0.0207,0.0823 0.0421,0.21557 0.0421,0.26247 0,0.039 0.002,0.0389 -0.15317,0.003 -0.15013,-0.0347 -0.2609,-0.0423 -0.30237,-0.0208 -0.0408,0.0211 -0.0628,0.072 -0.0676,0.15577 -0.009,0.15743 0.0652,0.36651 0.20461,0.57661 0.069,0.10393 0.0977,0.15203 0.1094,0.18307 0.007,0.0193 0.006,0.0212 -0.01,0.0212 -0.0137,0 -0.0276,-0.0156 -0.0631,-0.0707 z"
       id="path2498" />
    <path
       style="fill:#87cdde;stroke:none;stroke-width:0.131856;stroke-opacity:0"
       d="m 9.5912552,145.83419 c -0.00539,-0.14457 -0.016148,-6.61143 -0.023895,-14.3708 l -0.014089,-14.10795 1.1238258,-0.3588 c 1.833744,-0.58547 2.97207,-0.75209 5.184507,-0.75888 2.109061,-0.006 2.303495,0.0173 5.782638,0.70631 1.287951,0.25508 2.764957,0.51596 3.282231,0.57972 1.389746,0.17131 4.301832,0.0633 6.419221,-0.23818 3.755674,-0.53468 4.089749,-0.5661 6.021592,-0.56647 1.98666,-2.6e-4 2.226711,0.0242 6.117168,0.62637 1.898994,0.29393 2.143743,0.3104 4.540089,0.30549 2.399113,-0.005 2.647742,-0.0228 4.707356,-0.33838 l 2.174462,-0.33318 v 3.99712 3.99712 h 2.771844 2.771843 v -4.10396 -4.10397 l 0.358429,0.0538 c 0.564943,0.0848 2.703658,0.47221 4.340031,0.78613 3.025868,0.58048 5.089025,0.62038 7.965996,0.15405 4.455456,-0.72217 5.209692,-0.71473 9.414708,0.0929 3.557192,0.68324 5.078197,0.6901 8.841224,0.0399 4.639194,-0.80156 4.560811,-0.79223 6.642867,-0.79055 1.902807,0.002 2.032577,0.0144 4.492297,0.44709 4.32806,0.76125 5.65121,0.79208 8.9846,0.20937 3.3274,-0.58166 3.868,-0.64887 5.25694,-0.65352 1.53409,-0.005 2.17104,0.0927 4.58788,0.70448 1.62692,0.41185 2.97702,0.66472 3.54901,0.66472 h 0.3698 v 1.52929 1.52929 h -1.57708 c -0.8674,0 -1.57708,0.0254 -1.57708,0.0565 0,0.0311 1.2971,1.46119 2.88244,3.17806 1.58535,1.71687 2.93386,3.17822 2.9967,3.24744 0.0917,0.10101 0.71317,-0.52183 3.14729,-3.15417 l 3.03304,-3.28002 -1.63302,-0.0261 -1.63302,-0.0261 v -1.84535 -1.84536 l 1.74435,-0.40114 c 2.64999,-0.60941 3.70924,-0.77641 5.32863,-0.84008 1.76095,-0.0692 2.73981,0.0516 5.54369,0.68451 2.814,0.63518 3.57973,0.74305 5.25694,0.74057 1.77976,-0.003 2.78126,-0.14646 5.54369,-0.79615 2.99013,-0.70323 4.19513,-0.93079 5.60022,-1.05755 1.66728,-0.15042 2.88277,-0.0473 7.97225,0.67613 2.2342,0.31758 4.24498,0.60191 4.4684,0.63184 0.37341,0.05 0.40622,0.0771 0.40622,0.3353 0,0.18595 0.0485,0.28089 0.14337,0.28089 0.0797,0 0.14337,0.085 0.14337,0.19116 0,0.1062 -0.0637,0.19116 -0.14337,0.19116 -0.0956,0 -0.14337,0.0956 -0.14337,0.28674 0,0.15771 0.043,0.28674 0.0956,0.28674 0.0526,0 0.0956,0.086 0.0956,0.19117 0,0.10513 -0.043,0.19116 -0.0956,0.19116 -0.0526,0 -0.0956,0.12903 -0.0956,0.28674 0,0.19116 0.0478,0.28674 0.14337,0.28674 0.0797,0 0.14337,0.085 0.14337,0.19116 0,0.1062 -0.0637,0.19116 -0.14337,0.19116 -0.0956,0 -0.14337,0.0956 -0.14337,0.28675 0,0.19116 0.0478,0.28674 0.14337,0.28674 0.0797,0 0.14337,0.085 0.14337,0.19116 0,0.1062 -0.0637,0.19116 -0.14337,0.19116 -0.0956,0 -0.14337,0.0956 -0.14337,0.28675 0,0.1577 0.043,0.28674 0.0956,0.28674 0.0526,0 0.0956,0.086 0.0956,0.19116 0,0.10514 -0.043,0.19116 -0.0956,0.19116 -0.0526,0 -0.0956,0.12904 -0.0956,0.28674 0,0.19116 0.0478,0.28675 0.14337,0.28675 0.0797,0 0.14337,0.085 0.14337,0.19116 0,0.1062 -0.0637,0.19116 -0.14337,0.19116 -0.0956,0 -0.14337,0.0956 -0.14337,0.28674 0,0.19116 0.0478,0.28674 0.14337,0.28674 0.0797,0 0.14337,0.085 0.14337,0.19116 0,0.10621 -0.0637,0.19117 -0.14337,0.19117 -0.0956,0 -0.14337,0.0956 -0.14337,0.28674 0,0.19116 0.0478,0.28674 0.14337,0.28674 0.0797,0 0.14337,0.085 0.14337,0.19116 0,0.1062 -0.0637,0.19117 -0.14337,0.19117 -0.0956,0 -0.14337,0.0956 -0.14337,0.28674 0,0.19116 0.0478,0.28674 0.14337,0.28674 0.0797,0 0.14337,0.085 0.14337,0.19116 0,0.1062 -0.0637,0.19116 -0.14337,0.19116 -0.0892,0 -0.14337,0.0903 -0.14337,0.23895 v 0.23896 h -2.14831 -2.14831 l -0.0262,-1.6175 -0.0261,-1.6175 -3.20195,2.95649 c -1.76108,1.62607 -3.21448,2.99366 -3.22978,3.03908 -0.0153,0.0454 1.42558,1.42697 3.20196,3.07008 l 3.22977,2.98748 0.0261,-1.63722 0.0262,-1.63723 h 2.14831 c 1.84589,0 2.14831,0.0202 2.14831,0.14337 0,0.0789 0.043,0.14338 0.0956,0.14338 0.0526,0 0.0956,0.086 0.0956,0.19116 0,0.10514 -0.043,0.19116 -0.0956,0.19116 -0.0526,0 -0.0956,0.12903 -0.0956,0.28674 0,0.19116 0.0478,0.28674 0.14337,0.28674 0.0797,0 0.14337,0.085 0.14337,0.19116 0,0.10621 -0.0637,0.19117 -0.14337,0.19117 -0.0956,0 -0.14337,0.0956 -0.14337,0.28674 0,0.19116 0.0478,0.28674 0.14337,0.28674 0.0797,0 0.14337,0.085 0.14337,0.19116 0,0.1062 -0.0637,0.19116 -0.14337,0.19116 -0.0956,0 -0.14337,0.0956 -0.14337,0.28675 0,0.15771 0.043,0.28674 0.0956,0.28674 0.0526,0 0.0956,0.086 0.0956,0.19116 0,0.10514 -0.043,0.19116 -0.0956,0.19116 -0.0526,0 -0.0956,0.12904 -0.0956,0.28675 0,0.19116 0.0478,0.28674 0.14337,0.28674 0.0797,0 0.14337,0.085 0.14337,0.19116 0,0.1062 -0.0637,0.19116 -0.14337,0.19116 -0.0956,0 -0.14337,0.0956 -0.14337,0.28674 0,0.19116 0.0478,0.28675 0.14337,0.28675 0.0797,0 0.14337,0.085 0.14337,0.19116 0,0.1062 -0.0637,0.19116 -0.14337,0.19116 -0.0956,0 -0.14337,0.0956 -0.14337,0.28674 0,0.15771 0.043,0.28674 0.0956,0.28674 0.0526,0 0.0956,0.086 0.0956,0.19116 0,0.10514 -0.043,0.19117 -0.0956,0.19117 -0.0526,0 -0.0956,0.12903 -0.0956,0.28674 0,0.19116 0.0478,0.28674 0.14337,0.28674 0.0797,0 0.14337,0.085 0.14337,0.19116 0,0.10621 -0.0637,0.19117 -0.14337,0.19117 -0.0956,0 -0.14337,0.0956 -0.14337,0.28674 0,0.19116 0.0478,0.28674 0.14337,0.28674 0.0797,0 0.14337,0.085 0.14337,0.19116 0,0.1062 -0.0637,0.19116 -0.14337,0.19116 -0.0956,0 -0.14337,0.0956 -0.14337,0.28674 0,0.19117 0.0478,0.28675 0.14337,0.28675 0.0797,0 0.14337,0.085 0.14337,0.19116 0,0.1062 -0.0637,0.19116 -0.14337,0.19116 -0.0956,0 -0.14337,0.0956 -0.14337,0.28674 0,0.15771 0.043,0.28674 0.0956,0.28674 0.0526,0 0.0956,0.086 0.0956,0.19117 0,0.10514 -0.043,0.19116 -0.0956,0.19116 -0.0526,0 -0.0956,0.12903 -0.0956,0.28674 0,0.19116 0.0478,0.28674 0.14337,0.28674 0.0797,0 0.14337,0.085 0.14337,0.19117 0,0.1062 -0.0637,0.19116 -0.14337,0.19116 -0.0956,0 -0.14337,0.0956 -0.14337,0.28674 0,0.19116 0.0478,0.28674 0.14337,0.28674 0.0797,0 0.14337,0.085 0.14337,0.19116 0,0.1062 -0.0637,0.19116 -0.14337,0.19116 -0.0956,0 -0.14337,0.0956 -0.14337,0.28675 0,0.15771 0.043,0.28674 0.0956,0.28674 0.0526,0 0.0956,0.086 0.0956,0.19116 0,0.10514 -0.043,0.19116 -0.0956,0.19116 -0.0526,0 -0.0956,0.12904 -0.0956,0.28675 0,0.1577 0.043,0.28674 0.0956,0.28674 0.0526,0 0.0956,0.0645 0.0956,0.14337 0,0.12733 -9.13858,0.14337 -81.673793,0.14337 H 9.6010623 Z m 75.7987438,-3.22242 c 0.318043,-0.16447 0.771285,-0.6763 0.771285,-0.87099 0,-0.0873 0.102277,-0.13604 0.285461,-0.13604 0.23254,0 0.309864,0.0584 0.417116,0.3151 0.07241,0.17331 0.26984,0.43137 0.438729,0.57348 0.578848,0.48707 1.611389,0.27326 1.962883,-0.40645 0.2212,-0.42775 0.631685,-0.40709 0.911638,0.0459 0.268975,0.43521 0.636042,0.61896 1.236477,0.61896 0.437658,0 0.517419,-0.0357 0.853789,-0.38232 0.398735,-0.41087 0.871305,-0.53086 0.871305,-0.22122 0,0.0886 0.09352,0.26065 0.207822,0.38232 0.233114,0.24814 0.606375,0.2848 1.096227,0.10767 0.249,-0.09 0.362683,-0.0875 0.549013,0.0122 0.150546,0.0806 0.332087,0.0993 0.505198,0.0522 0.148617,-0.0405 1.141193,-0.0659 2.205723,-0.0566 1.064533,0.009 1.935512,-0.0173 1.935512,-0.0593 0,-0.042 -0.09677,-0.11881 -0.215056,-0.1707 -0.20356,-0.0893 -0.217612,-0.16167 -0.262848,-1.35336 -0.04474,-1.17853 -0.06307,-1.27525 -0.286742,-1.51312 -0.247751,-0.26346 -0.520102,-0.2828 -1.276612,-0.0907 -0.186142,0.0473 -0.297868,0.0291 -0.351121,-0.057 -0.06446,-0.10431 -0.150143,-0.1026 -0.490571,0.01 -0.226857,0.0749 -0.488212,0.21187 -0.580793,0.30445 -0.207396,0.2074 -0.632309,0.22024 -0.708604,0.0214 -0.09129,-0.2379 -0.562663,-0.42658 -1.065715,-0.42658 -0.546389,0 -1.100172,0.31265 -1.148604,0.64846 -0.0493,0.34184 -0.544161,0.29234 -0.733266,-0.0734 -0.431411,-0.83425 -1.829306,-0.74962 -2.355742,0.14263 -0.164586,0.27895 -0.2511,0.33366 -0.5276,0.33366 -0.208008,0 -0.307568,-0.0375 -0.268303,-0.10101 0.121441,-0.1965 -0.06025,-0.57641 -0.364353,-0.76182 -0.367395,-0.22401 -1.017781,-0.24659 -1.400611,-0.0486 -0.318045,0.16447 -0.771287,0.6763 -0.771287,0.87099 0,0.0856 -0.100288,0.13604 -0.270727,0.13604 -0.207272,0 -0.32489,-0.0833 -0.501801,-0.35535 -0.505891,-0.778 -1.345335,-1.01025 -2.106083,-0.58268 -0.444223,0.24966 -0.84904,0.98076 -0.84904,1.53335 0,0.6436 0.433615,1.41121 0.908018,1.60743 0.312081,0.12909 1.088451,0.10165 1.379283,-0.0487 z"
       id="path2500" />
    <path
       style="fill:#87cdde;stroke:none;stroke-width:0.0156218;stroke-opacity:0"
       d="m 84.745112,142.49126 c -0.01246,-0.003 -0.05068,-0.0106 -0.08493,-0.0173 -0.03425,-0.007 -0.10377,-0.032 -0.154477,-0.0562 -0.334505,-0.15986 -0.596548,-0.66429 -0.673201,-1.29591 -0.02024,-0.16683 -0.01704,-0.53989 0.0059,-0.68863 0.05547,-0.35943 0.199684,-0.62597 0.404143,-0.74698 0.277506,-0.16424 0.619385,-0.12955 0.855808,0.0868 0.216419,0.19808 0.389422,0.55665 0.454877,0.94281 0.06569,0.38754 0.05645,0.86421 -0.02257,1.16401 -0.08004,0.30368 -0.263686,0.51255 -0.516707,0.58767 -0.06108,0.0181 -0.228394,0.0329 -0.268856,0.0238 z"
       id="path2502" />
    <path
       style="fill:#87cdde;stroke:none;stroke-width:0.0156218;stroke-opacity:0"
       d="m 88.164976,142.17517 c -0.274807,-0.0605 -0.491167,-0.25262 -0.650642,-0.57775 -0.189114,-0.38556 -0.242033,-0.84096 -0.146066,-1.25698 0.07033,-0.30487 0.255563,-0.57564 0.462648,-0.67628 0.147965,-0.0719 0.334951,-0.0949 0.484666,-0.0596 0.09003,0.0212 0.127963,0.0409 0.191423,0.0994 0.08371,0.0772 0.105175,0.13329 0.144966,0.37905 0.02077,0.12827 0.05074,0.19487 0.110844,0.24632 0.06913,0.0592 0.154027,0.0869 0.268452,0.0877 0.113045,8e-4 0.163771,-0.0137 0.23274,-0.0663 0.05525,-0.0422 0.08321,-0.0473 0.121555,-0.0222 0.06729,0.0441 0.360434,0.0511 0.478134,0.0114 0.03108,-0.0105 0.07662,-0.0338 0.101203,-0.0517 0.04031,-0.0295 0.09456,-0.0425 0.110509,-0.0266 0.0034,0.003 -0.0086,0.053 -0.02661,0.1104 -0.147111,0.46905 -0.129458,1.09558 0.04241,1.50532 0.01495,0.0356 0.02717,0.0675 0.02717,0.0708 0,0.003 -0.01696,0.006 -0.03766,0.006 -0.02625,0 -0.04599,-0.009 -0.06511,-0.0299 -0.04729,-0.0515 -0.154022,-0.11379 -0.230701,-0.13454 -0.122502,-0.0332 -0.246999,-0.007 -0.348136,0.0744 -0.05029,0.0402 -0.09975,0.0452 -0.09975,0.01 0,-0.013 0.01535,-0.067 0.03408,-0.12012 0.0339,-0.0961 0.09462,-0.32065 0.08819,-0.32623 -0.0067,-0.006 -0.09884,-0.051 -0.103954,-0.051 -0.0029,0 -0.0356,0.0625 -0.07272,0.13881 -0.186459,0.38351 -0.409535,0.58578 -0.726958,0.65917 -0.09038,0.0209 -0.297032,0.0212 -0.390681,5.3e-4 z"
       id="path2504" />
    <path
       style="fill:#87cdde;stroke:none;stroke-width:0.0156218;stroke-opacity:0"
       d="m 91.41498,142.15118 c -0.339453,-0.0756 -0.658707,-0.35428 -0.811668,-0.70861 -0.08318,-0.1927 -0.127561,-0.39759 -0.141218,-0.65199 l -0.0074,-0.13872 h 1.111483 1.111482 v -0.0392 c 0,-0.0881 -0.02683,-0.27882 -0.05342,-0.3798 -0.04507,-0.17113 -0.04501,-0.16986 -0.0084,-0.16986 0.01725,0 0.04847,0.0131 0.06939,0.029 0.140999,0.10754 0.343463,0.1322 0.458803,0.0559 0.02349,-0.0155 0.05485,-0.0283 0.06969,-0.0283 0.02498,0 0.02757,0.006 0.03478,0.0761 0.01926,0.18806 0.125322,0.29687 0.289758,0.29729 0.107463,2.6e-4 0.153678,-0.0164 0.214744,-0.0775 0.07828,-0.0783 0.09101,-0.126 0.09101,-0.34121 0,-0.22023 0.01079,-0.25748 0.103113,-0.35619 0.114335,-0.12222 0.267005,-0.16986 0.464495,-0.14493 0.13916,0.0176 0.238678,0.0644 0.321575,0.1513 0.116649,0.12229 0.161216,0.27781 0.171645,0.59895 l 0.0064,0.19817 -0.07784,0.0264 c -0.283983,0.0963 -0.885193,0.35475 -1.058029,0.45487 -0.247116,0.14315 -0.460693,0.32926 -0.546026,0.4758 -0.07516,0.12906 -0.118737,0.32039 -0.10377,0.45562 0.0084,0.0756 0.0071,0.0762 -0.09479,0.0466 -0.0542,-0.0158 -0.07458,-0.0165 -0.137631,-0.005 -0.09349,0.0172 -0.204116,0.0635 -0.31088,0.13001 -0.08877,0.0553 -0.142484,0.0671 -0.142484,0.0312 0,-0.0114 0.02789,-0.0741 0.06198,-0.13941 0.0724,-0.13863 0.109648,-0.2335 0.140067,-0.35676 0.04092,-0.16582 0.04155,-0.15748 -0.01476,-0.19622 -0.0274,-0.0189 -0.05466,-0.0343 -0.06056,-0.0343 -0.0059,0 -0.0173,0.0166 -0.02532,0.0368 -0.03589,0.0907 -0.130546,0.26895 -0.183327,0.34531 -0.116433,0.16842 -0.298051,0.29793 -0.489958,0.34939 -0.09881,0.0265 -0.351991,0.0316 -0.452962,0.009 z"
       id="path2506" />
    <path
       style="fill:#87cdde;stroke:none;stroke-width:0.0156218;stroke-opacity:0"
       d="m 90.46479,140.38857 c 0.05522,-0.3818 0.25532,-0.64777 0.570288,-0.75801 0.09081,-0.0318 0.248351,-0.0393 0.340267,-0.0163 0.228767,0.0574 0.434422,0.24223 0.49925,0.4487 0.02178,0.0694 0.05492,0.27425 0.05541,0.34255 l 2.22e-4,0.0311 h -0.736198 -0.736198 z"
       id="path2508" />
    <path
       style="fill:#87cdde;stroke:none;stroke-width:0.0156218;stroke-opacity:0"
       d="m 94.091264,142.28344 c -0.0865,-0.0277 -0.129678,-0.056 -0.204272,-0.13424 -0.108828,-0.1141 -0.159691,-0.24613 -0.160213,-0.4159 -5.29e-4,-0.17389 0.0552,-0.31053 0.182954,-0.44851 0.08756,-0.0946 0.277765,-0.22477 0.437238,-0.29929 0.177532,-0.083 0.51332,-0.2204 0.538482,-0.2204 0.02283,0 0.02299,0.004 0.02286,0.59734 l -1.48e-4,0.59734 -0.09328,0.069 c -0.247351,0.18306 -0.454181,0.2774 -0.604491,0.27574 -0.03024,-2.6e-4 -0.08385,-0.01 -0.119123,-0.0211 z"
       id="path2510" />
    <path
       style="fill:#87cdde;stroke:none;stroke-width:0.0156218;stroke-opacity:0"
       d="m 95.621865,142.64834 c 0,-0.0279 0.01027,-0.0407 0.05945,-0.0746 0.07082,-0.0488 0.247685,-0.22482 0.319585,-0.31803 l 0.05128,-0.0665 v -0.10055 c 0,-0.0553 -0.004,-0.10056 -0.0088,-0.10056 -0.0049,0 -0.03926,0.0309 -0.07644,0.0687 -0.173596,0.17637 -0.27059,0.23186 -0.348009,0.19909 -0.05218,-0.0221 -0.07263,-0.0495 -0.09431,-0.12655 -0.01685,-0.0599 -0.02,-0.18267 -0.02753,-1.07545 -0.0075,-0.88358 -0.01087,-1.01901 -0.02774,-1.09843 -0.03505,-0.16504 -0.03501,-0.15288 -5.29e-4,-0.15288 0.01688,0 0.04585,0.0108 0.06439,0.024 0.102971,0.0733 0.334465,0.0727 0.487688,-0.001 0.06811,-0.0329 0.09791,-0.0299 0.112279,0.0113 0.0065,0.0187 0.01516,0.0339 0.01923,0.0338 0.0041,-8e-5 0.04051,-0.0107 0.08099,-0.0235 0.04185,-0.0133 0.106188,-0.0237 0.149135,-0.0241 0.129093,-0.001 0.185031,0.0504 0.221131,0.20421 0.01889,0.0805 0.02043,0.16448 0.02043,1.12312 0,0.96841 -0.0013,1.04096 -0.02066,1.10976 -0.01135,0.0405 -0.03315,0.0951 -0.04843,0.12143 -0.04973,0.0857 -0.179113,0.13824 -0.341411,0.13878 l -0.07078,2.4e-4 v 0.0662 0.0662 l -0.189677,0.008 c -0.104322,0.004 -0.221527,0.0108 -0.260453,0.0146 l -0.07078,0.007 z"
       id="path2512" />
    <path
       style="fill:#87cdde;stroke:none;stroke-width:0.0156218;stroke-opacity:0"
       d="m 97.750788,142.58792 c 0,-0.0359 -0.0052,-0.0585 -0.01416,-0.061 -0.0078,-0.002 -0.07395,-0.009 -0.147031,-0.016 -0.154157,-0.0139 -0.212498,-0.0354 -0.267931,-0.0985 -0.06635,-0.0756 -0.08102,-0.12467 -0.09231,-0.30888 -0.0056,-0.0915 -0.01032,-0.54912 -0.0105,-1.01694 l -2.65e-4,-0.85058 0.09342,-0.0895 c 0.220478,-0.21118 0.405755,-0.31576 0.625068,-0.35283 0.08301,-0.014 0.116798,-0.0147 0.186849,-0.004 0.193495,0.0298 0.294134,0.12517 0.360251,0.34122 0.05098,0.1666 0.05366,0.22599 0.05364,1.18903 l -1e-5,0.91158 -0.02682,0.0666 c -0.01593,0.0395 -0.04812,0.0885 -0.07925,0.12063 -0.06472,0.0667 -0.129773,0.0885 -0.293074,0.0981 l -0.116072,0.007 v 0.0606 0.0606 h -0.135888 -0.13589 v -0.057 z"
       id="path2514" />
    <path
       style="fill:#87cdde;stroke:none;stroke-width:0.0156218;stroke-opacity:0"
       d="m 86.719078,141.67691 c -0.06316,-0.0587 -0.142801,-0.0776 -0.302651,-0.0716 -0.09329,0.003 -0.141722,0.0104 -0.167484,0.024 -0.01992,0.0105 -0.04981,0.019 -0.0664,0.019 -0.03562,0 -0.03594,0.004 0.0154,-0.19251 0.08136,-0.31128 0.07921,-0.67698 -0.0056,-0.9604 -0.01619,-0.0541 -0.0318,-0.11496 -0.03464,-0.1352 -0.0047,-0.0334 -0.0024,-0.0368 0.02434,-0.0368 0.01717,0 0.05841,0.0213 0.09858,0.0508 0.03799,0.028 0.09498,0.0585 0.126651,0.0679 0.07387,0.0219 0.237357,0.0221 0.309298,2.3e-4 0.03057,-0.009 0.06902,-0.0169 0.08544,-0.017 l 0.02985,-1.2e-4 -0.02167,0.0821 c -0.04775,0.18087 -0.05957,0.28878 -0.05985,0.54638 -2.64e-4,0.25949 0.01487,0.40468 0.06052,0.58036 l 0.02132,0.0821 -0.03567,-2.7e-4 c -0.02468,-2.1e-4 -0.04852,-0.0122 -0.07739,-0.0391 z"
       id="path2516" />
  </g>
</svg>
